M48
; DRILL file {KiCad 8.0.2-1} date 2024-06-12T00:12:29+0200
; FORMAT={-:-/ absolute / inch / decimal}
; #@! TF.CreationDate,2024-06-12T00:12:29+02:00
; #@! TF.GenerationSoftware,Kicad,Pcbnew,8.0.2-1
; #@! TF.FileFunction,Plated,1,2,PTH
FMAT,2
INCH
; #@! TA.AperFunction,Plated,PTH,ViaDrill
T1C0.0118
; #@! TA.AperFunction,Plated,PTH,ComponentDrill
T2C0.0315
; #@! TA.AperFunction,Plated,PTH,ComponentDrill
T3C0.0354
%
G90
G05
T1
X4.0325Y-4.6409
X4.431Y-4.3541
X4.629Y-4.1323
X4.6398Y-4.5526
X4.6514Y-4.4102
X4.6526Y-4.6327
X4.6645Y-4.528
X4.738Y-4.3428
X4.7561Y-4.0029
X4.7644Y-4.3645
X4.802Y-4.0424
X4.9008Y-3.8363
X4.9813Y-4.5115
X5.0153Y-3.9219
X5.0416Y-4.6444
X5.1251Y-4.3827
X5.1557Y-4.6325
X5.3171Y-4.1973
X5.3533Y-4.5244
X5.3816Y-4.2052
X5.3909Y-4.5657
X5.3994Y-4.4444
X5.4328Y-4.0463
X5.495Y-4.4849
X5.5583Y-3.9439
X5.6063Y-3.9411
X5.6075Y-4.2637
X5.6611Y-4.1417
X5.681Y-4.3543
X6.0849Y-4.641
T2
X4.0528Y-3.6797
X4.0528Y-4.2797
X4.1528Y-3.6797
X4.1528Y-4.2797
X4.2528Y-3.6797
X4.2528Y-4.2797
X4.2559Y-3.4646
X4.2559Y-3.5811
X4.2638Y-4.4173
X4.3528Y-3.6797
X4.3528Y-4.2797
X4.3543Y-3.5811
X4.4528Y-3.6797
X4.4528Y-4.2797
X4.5528Y-3.6797
X4.5528Y-4.2797
X4.5638Y-4.4173
X4.6398Y-3.5819
X4.6528Y-3.6797
X4.6528Y-4.2797
X4.6559Y-3.4646
X4.7343Y-4.4157
X4.7382Y-3.5819
X4.7528Y-3.6797
X4.7528Y-4.2797
X4.8126Y-3.4657
X4.8528Y-3.6797
X4.8528Y-4.2797
X4.9528Y-3.6797
X4.9528Y-4.2797
X5.0343Y-4.4157
X5.0528Y-3.6797
X5.0528Y-4.2797
X5.1528Y-3.6797
X5.1528Y-4.2797
X5.2126Y-3.4657
X5.2528Y-3.6797
X5.2528Y-4.2797
X5.3528Y-3.6797
X5.3528Y-4.2797
X5.3642Y-3.4646
X5.5055Y-3.6878
X5.5055Y-3.7878
X5.5055Y-3.8878
X5.5055Y-3.9878
X5.5055Y-4.0878
X5.5055Y-4.1878
X5.5055Y-4.2878
X5.7642Y-3.4646
X5.8055Y-3.6878
X5.8055Y-3.7878
X5.8055Y-3.8878
X5.8055Y-3.9878
X5.8055Y-4.0878
X5.8055Y-4.1878
X5.8055Y-4.2878
X5.8807Y-3.4476
X5.8807Y-3.5461
X5.9173Y-3.6878
X5.9173Y-3.7878
X5.9173Y-3.8878
X5.9173Y-3.9878
X5.9173Y-4.0878
X5.9173Y-4.1878
X5.9173Y-4.2878
X6.152Y-3.4488
X6.152Y-3.5472
X6.2173Y-3.6878
X6.2173Y-3.7878
X6.2173Y-3.8878
X6.2173Y-3.9878
X6.2173Y-4.0878
X6.2173Y-4.1878
X6.2173Y-4.2878
T3
X4.04Y-3.4941
X4.14Y-3.4941
M30
