M48
; DRILL file {KiCad 8.0.2} date 2024-05-20T10:45:08+0200
; FORMAT={-:-/ absolute / inch / decimal}
; #@! TF.CreationDate,2024-05-20T10:45:08+02:00
; #@! TF.GenerationSoftware,Kicad,Pcbnew,8.0.2
; #@! TF.FileFunction,Plated,1,2,PTH
FMAT,2
INCH
; #@! TA.AperFunction,Plated,PTH,ViaDrill
T1C0.0118
; #@! TA.AperFunction,Plated,PTH,ComponentDrill
T2C0.0276
; #@! TA.AperFunction,Plated,PTH,ComponentDrill
T3C0.0315
; #@! TA.AperFunction,Plated,PTH,ComponentDrill
T4C0.0354
%
G90
G05
T1
X4.5865Y-4.5226
X4.5905Y-4.4714
X4.6202Y-4.4989
X4.7111Y-4.4356
X4.7696Y-4.4593
X4.8613Y-4.5756
X4.9344Y-4.1309
X5.0917Y-4.1309
X5.2435Y-4.5226
X5.3789Y-4.378
X5.4901Y-4.6504
X5.5474Y-4.5175
X5.5602Y-4.5694
X5.5801Y-4.609
X5.597Y-4.5433
X5.6632Y-4.5536
X5.7871Y-4.3392
X5.7989Y-4.4886
X5.8564Y-4.5124
T2
X4.2606Y-4.378
X4.4606Y-4.378
X5.6823Y-4.378
X5.8823Y-4.378
T3
X4.0969Y-3.6134
X4.0969Y-3.7118
X4.2417Y-3.6165
X4.2417Y-4.2165
X4.3417Y-3.6165
X4.3417Y-4.2165
X4.4417Y-3.6165
X4.4417Y-4.2165
X4.5417Y-3.6165
X4.5417Y-4.2165
X4.6417Y-3.6165
X4.6417Y-4.2165
X4.6665Y-4.378
X4.7417Y-3.6165
X4.7417Y-4.2165
X4.8417Y-3.6165
X4.8417Y-4.2165
X4.9417Y-3.6165
X4.9417Y-4.2165
X4.9665Y-4.378
X5.0417Y-3.6165
X5.0417Y-4.2165
X5.1417Y-3.6165
X5.1417Y-4.2165
X5.1764Y-4.378
X5.2417Y-3.6165
X5.2417Y-4.2165
X5.3417Y-3.6165
X5.3417Y-4.2165
X5.4417Y-3.6165
X5.4417Y-4.2165
X5.4764Y-4.378
X5.5417Y-3.6165
X5.5417Y-4.2165
X5.752Y-3.6346
X5.752Y-3.7346
X5.752Y-3.8346
X5.752Y-3.9346
X5.752Y-4.0346
X5.752Y-4.1346
X5.752Y-4.2346
X6.052Y-3.6346
X6.052Y-3.7346
X6.052Y-3.8346
X6.052Y-3.9346
X6.052Y-4.0346
X6.052Y-4.1346
X6.052Y-4.2346
X6.1634Y-3.6146
X6.1634Y-3.713
T4
X4.0234Y-3.9071
X4.1234Y-3.9071
M30
