%TF.GenerationSoftware,KiCad,Pcbnew,8.0.2-1*%
%TF.CreationDate,2024-06-12T00:12:27+02:00*%
%TF.ProjectId,zx81-external-16k,7a783831-2d65-4787-9465-726e616c2d31,rev?*%
%TF.SameCoordinates,Original*%
%TF.FileFunction,Copper,L1,Top*%
%TF.FilePolarity,Positive*%
%FSLAX46Y46*%
G04 Gerber Fmt 4.6, Leading zero omitted, Abs format (unit mm)*
G04 Created by KiCad (PCBNEW 8.0.2-1) date 2024-06-12 00:12:27*
%MOMM*%
%LPD*%
G01*
G04 APERTURE LIST*
%TA.AperFunction,ComponentPad*%
%ADD10R,1.600000X1.600000*%
%TD*%
%TA.AperFunction,ComponentPad*%
%ADD11O,1.600000X1.600000*%
%TD*%
%TA.AperFunction,ComponentPad*%
%ADD12C,1.600000*%
%TD*%
%TA.AperFunction,ConnectorPad*%
%ADD13R,1.778000X9.620000*%
%TD*%
%TA.AperFunction,ComponentPad*%
%ADD14R,1.800000X1.800000*%
%TD*%
%TA.AperFunction,ComponentPad*%
%ADD15C,1.800000*%
%TD*%
%TA.AperFunction,ViaPad*%
%ADD16C,0.600000*%
%TD*%
%TA.AperFunction,Conductor*%
%ADD17C,0.200000*%
%TD*%
G04 APERTURE END LIST*
D10*
%TO.P,D2,1,K*%
%TO.N,Net-(D2-K)*%
X120250000Y-112160000D03*
D11*
%TO.P,D2,2,A*%
%TO.N,Net-(D2-A)*%
X127870000Y-112160000D03*
%TD*%
D10*
%TO.P,D3,1,K*%
%TO.N,Net-(D3-K)*%
X108300000Y-112200000D03*
D11*
%TO.P,D3,2,A*%
%TO.N,Net-(D2-A)*%
X115920000Y-112200000D03*
%TD*%
D10*
%TO.P,U3,1*%
%TO.N,A14*%
X150300000Y-93670000D03*
D11*
%TO.P,U3,2*%
%TO.N,A15*%
X150300000Y-96210000D03*
%TO.P,U3,3*%
%TO.N,Net-(J1-~{ROMCS})*%
X150300000Y-98750000D03*
%TO.P,U3,4*%
%TO.N,GND*%
X150300000Y-101290000D03*
%TO.P,U3,5*%
X150300000Y-103830000D03*
%TO.P,U3,6*%
%TO.N,unconnected-(U3-Pad6)*%
X150300000Y-106370000D03*
%TO.P,U3,7,GND*%
%TO.N,GND*%
X150300000Y-108910000D03*
%TO.P,U3,8*%
%TO.N,unconnected-(U3-Pad8)*%
X157920000Y-108910000D03*
%TO.P,U3,9*%
%TO.N,GND*%
X157920000Y-106370000D03*
%TO.P,U3,10*%
X157920000Y-103830000D03*
%TO.P,U3,11*%
%TO.N,unconnected-(U3-Pad11)*%
X157920000Y-101290000D03*
%TO.P,U3,12*%
%TO.N,GND*%
X157920000Y-98750000D03*
%TO.P,U3,13*%
X157920000Y-96210000D03*
%TO.P,U3,14,VCC*%
%TO.N,+5V*%
X157920000Y-93670000D03*
%TD*%
D12*
%TO.P,R3,1*%
%TO.N,+5V*%
X132400000Y-88030000D03*
D11*
%TO.P,R3,2*%
%TO.N,Net-(J1-~{WR})*%
X122240000Y-88030000D03*
%TD*%
D12*
%TO.P,R2,1*%
%TO.N,+5V*%
X136250000Y-88000000D03*
D11*
%TO.P,R2,2*%
%TO.N,Net-(D2-A)*%
X146410000Y-88000000D03*
%TD*%
D12*
%TO.P,R1,1*%
%TO.N,+5V*%
X118260000Y-88000000D03*
D11*
%TO.P,R1,2*%
%TO.N,Net-(D1-A)*%
X108100000Y-88000000D03*
%TD*%
D10*
%TO.P,U2,1*%
%TO.N,Net-(J1-~{MREQ})*%
X139840000Y-93670000D03*
D11*
%TO.P,U2,2*%
X139840000Y-96210000D03*
%TO.P,U2,3*%
%TO.N,Net-(U2-Pad3)*%
X139840000Y-98750000D03*
%TO.P,U2,4*%
%TO.N,Net-(J1-~{ROMCS})*%
X139840000Y-101290000D03*
%TO.P,U2,5*%
%TO.N,Net-(U2-Pad3)*%
X139840000Y-103830000D03*
%TO.P,U2,6*%
%TO.N,Net-(U1-~{CS})*%
X139840000Y-106370000D03*
%TO.P,U2,7,GND*%
%TO.N,GND*%
X139840000Y-108910000D03*
%TO.P,U2,8*%
%TO.N,Net-(U2-Pad12)*%
X147460000Y-108910000D03*
%TO.P,U2,9*%
%TO.N,A15*%
X147460000Y-106370000D03*
%TO.P,U2,10*%
%TO.N,~{M1}*%
X147460000Y-103830000D03*
%TO.P,U2,11*%
%TO.N,Net-(U1-A14)*%
X147460000Y-101290000D03*
%TO.P,U2,12*%
%TO.N,Net-(U2-Pad12)*%
X147460000Y-98750000D03*
%TO.P,U2,13*%
X147460000Y-96210000D03*
%TO.P,U2,14,VCC*%
%TO.N,+5V*%
X147460000Y-93670000D03*
%TD*%
D10*
%TO.P,U1,1,A14*%
%TO.N,Net-(U1-A14)*%
X102940000Y-108705000D03*
D11*
%TO.P,U1,2,A12*%
%TO.N,A12*%
X105480000Y-108705000D03*
%TO.P,U1,3,A7*%
%TO.N,A7*%
X108020000Y-108705000D03*
%TO.P,U1,4,A6*%
%TO.N,A6*%
X110560000Y-108705000D03*
%TO.P,U1,5,A5*%
%TO.N,A5*%
X113100000Y-108705000D03*
%TO.P,U1,6,A4*%
%TO.N,A4*%
X115640000Y-108705000D03*
%TO.P,U1,7,A3*%
%TO.N,A3*%
X118180000Y-108705000D03*
%TO.P,U1,8,A2*%
%TO.N,A2*%
X120720000Y-108705000D03*
%TO.P,U1,9,A1*%
%TO.N,A1*%
X123260000Y-108705000D03*
%TO.P,U1,10,A0*%
%TO.N,A0*%
X125800000Y-108705000D03*
%TO.P,U1,11,Q0*%
%TO.N,D0*%
X128340000Y-108705000D03*
%TO.P,U1,12,Q1*%
%TO.N,D1*%
X130880000Y-108705000D03*
%TO.P,U1,13,Q2*%
%TO.N,D2*%
X133420000Y-108705000D03*
%TO.P,U1,14,GND*%
%TO.N,GND*%
X135960000Y-108705000D03*
%TO.P,U1,15,Q3*%
%TO.N,D3*%
X135960000Y-93465000D03*
%TO.P,U1,16,Q4*%
%TO.N,D4*%
X133420000Y-93465000D03*
%TO.P,U1,17,Q5*%
%TO.N,D5*%
X130880000Y-93465000D03*
%TO.P,U1,18,Q6*%
%TO.N,D6*%
X128340000Y-93465000D03*
%TO.P,U1,19,Q7*%
%TO.N,D7*%
X125800000Y-93465000D03*
%TO.P,U1,20,~{CS}*%
%TO.N,Net-(U1-~{CS})*%
X123260000Y-93465000D03*
%TO.P,U1,21,A10*%
%TO.N,A10*%
X120720000Y-93465000D03*
%TO.P,U1,22,~{OE}*%
%TO.N,Net-(D2-A)*%
X118180000Y-93465000D03*
%TO.P,U1,23,A11*%
%TO.N,A11*%
X115640000Y-93465000D03*
%TO.P,U1,24,A9*%
%TO.N,A9*%
X113100000Y-93465000D03*
%TO.P,U1,25,A8*%
%TO.N,A8*%
X110560000Y-93465000D03*
%TO.P,U1,26,A13*%
%TO.N,A13*%
X108020000Y-93465000D03*
%TO.P,U1,27,~{WE}*%
%TO.N,Net-(J1-~{WR})*%
X105480000Y-93465000D03*
%TO.P,U1,28,VCC*%
%TO.N,+5V*%
X102940000Y-93465000D03*
%TD*%
D13*
%TO.P,J1,B3,D7*%
%TO.N,D7*%
X101980000Y-123400000D03*
%TO.P,J1,B4,~{RAMCS}*%
%TO.N,+5V*%
X104520000Y-123400000D03*
%TO.P,J1,B6,D0*%
%TO.N,D0*%
X109600000Y-123400000D03*
%TO.P,J1,B7,D1*%
%TO.N,D1*%
X112140000Y-123400000D03*
%TO.P,J1,B8,D2*%
%TO.N,D2*%
X114680000Y-123400000D03*
%TO.P,J1,B9,D6*%
%TO.N,D6*%
X117220000Y-123400000D03*
%TO.P,J1,B10,D5*%
%TO.N,D5*%
X119760000Y-123400000D03*
%TO.P,J1,B11,D3*%
%TO.N,D3*%
X122300000Y-123400000D03*
%TO.P,J1,B12,D4*%
%TO.N,D4*%
X124830000Y-123400000D03*
%TO.P,J1,B13,~{INT}*%
%TO.N,unconnected-(J1-~{INT}-PadB13)*%
X127380000Y-123400000D03*
%TO.P,J1,B14,~{NMI}*%
%TO.N,unconnected-(J1-~{NMI}-PadB14)*%
X129920000Y-123400000D03*
%TO.P,J1,B15,~{HALT}*%
%TO.N,unconnected-(J1-~{HALT}-PadB15)*%
X132460000Y-123400000D03*
%TO.P,J1,B16,~{MREQ}*%
%TO.N,Net-(J1-~{MREQ})*%
X135000000Y-123400000D03*
%TO.P,J1,B17,~{IOREQ}*%
%TO.N,unconnected-(J1-~{IOREQ}-PadB17)*%
X137540000Y-123400000D03*
%TO.P,J1,B18,~{RD}*%
%TO.N,Net-(D3-K)*%
X140080000Y-123400000D03*
%TO.P,J1,B19,~{WR}*%
%TO.N,Net-(J1-~{WR})*%
X142620000Y-123400000D03*
%TO.P,J1,B20,~{BUSAC}*%
%TO.N,unconnected-(J1-~{BUSAC}-PadB20)*%
X145160000Y-123400000D03*
%TO.P,J1,B21,~{WAIT}*%
%TO.N,unconnected-(J1-~{WAIT}-PadB21)*%
X147700000Y-123400000D03*
%TO.P,J1,B22,~{BUSRQ}*%
%TO.N,unconnected-(J1-~{BUSRQ}-PadB22)*%
X150240000Y-123400000D03*
%TO.P,J1,B23,~{RESET}*%
%TO.N,unconnected-(J1-~{RESET}-PadB23)*%
X152780000Y-123400000D03*
%TO.P,J1,B24,~{M1}*%
%TO.N,~{M1}*%
X155320000Y-123400000D03*
%TO.P,J1,B25,~{RFSH}*%
%TO.N,Net-(D2-K)*%
X157860000Y-123400000D03*
%TD*%
D14*
%TO.P,D1,1,K*%
%TO.N,GND*%
X102615000Y-88750000D03*
D15*
%TO.P,D1,2,A*%
%TO.N,Net-(D1-A)*%
X105155000Y-88750000D03*
%TD*%
D12*
%TO.P,C4,1*%
%TO.N,Net-(U1-~{CS})*%
X117850000Y-90980000D03*
%TO.P,C4,2*%
%TO.N,GND*%
X120350000Y-90980000D03*
%TD*%
%TO.P,C3,1*%
%TO.N,+5V*%
X156260000Y-90100000D03*
%TO.P,C3,2*%
%TO.N,GND*%
X156260000Y-87600000D03*
%TD*%
%TO.P,C2,1*%
%TO.N,+5V*%
X149370000Y-90070000D03*
%TO.P,C2,2*%
%TO.N,GND*%
X149370000Y-87570000D03*
%TD*%
%TO.P,C1,1*%
%TO.N,+5V*%
X108100000Y-90960000D03*
%TO.P,C1,2*%
%TO.N,GND*%
X110600000Y-90960000D03*
%TD*%
D16*
%TO.N,A14*%
X130954100Y-117664600D03*
X135973000Y-114920100D03*
X141180200Y-100174500D03*
%TO.N,Net-(D2-K)*%
X117575800Y-104959900D03*
X118144800Y-112019500D03*
%TO.N,Net-(D2-A)*%
X118477200Y-115010800D03*
%TO.N,Net-(J1-~{MREQ})*%
X136929600Y-115968300D03*
%TO.N,Net-(J1-~{WR})*%
X136692600Y-106812600D03*
%TO.N,A15*%
X128057600Y-117968900D03*
X139573400Y-113915900D03*
X142431300Y-108299100D03*
%TO.N,A9*%
X124480800Y-97442500D03*
%TO.N,D5*%
X130178800Y-111320000D03*
X127389400Y-99617500D03*
%TO.N,A6*%
X143791100Y-105200400D03*
%TO.N,D6*%
X118175200Y-117669900D03*
X120804500Y-101673700D03*
%TO.N,A12*%
X126525300Y-114591600D03*
X117850600Y-115637000D03*
X112548200Y-110594100D03*
%TO.N,A5*%
X144297200Y-110599000D03*
%TO.N,A8*%
X142401000Y-100104200D03*
%TO.N,A4*%
X154557600Y-117881600D03*
%TO.N,A1*%
X120345900Y-110306600D03*
%TO.N,A0*%
X121015700Y-110857300D03*
%TO.N,D3*%
X135053700Y-106612300D03*
%TO.N,D7*%
X102426100Y-117879900D03*
%TO.N,A13*%
X121970200Y-102677100D03*
%TO.N,A7*%
X137992900Y-102774800D03*
%TO.N,D4*%
X137144400Y-112888100D03*
%TD*%
D17*
%TO.N,Net-(U1-A14)*%
X145222000Y-102426300D02*
X146358300Y-101290000D01*
X138629200Y-102426300D02*
X145222000Y-102426300D01*
X138373700Y-102170800D02*
X138629200Y-102426300D01*
X131869100Y-102170800D02*
X138373700Y-102170800D01*
X130654200Y-103385700D02*
X131869100Y-102170800D01*
X109223300Y-103385700D02*
X130654200Y-103385700D01*
X104041700Y-108567300D02*
X109223300Y-103385700D01*
X104041700Y-108705000D02*
X104041700Y-108567300D01*
X102940000Y-108705000D02*
X104041700Y-108705000D01*
X147460000Y-101290000D02*
X146358300Y-101290000D01*
%TO.N,A14*%
X148096600Y-94771700D02*
X149198300Y-93670000D01*
X146583000Y-94771700D02*
X148096600Y-94771700D01*
X141180200Y-100174500D02*
X146583000Y-94771700D01*
X150300000Y-93670000D02*
X149198300Y-93670000D01*
X133698600Y-114920100D02*
X135973000Y-114920100D01*
X130954100Y-117664600D02*
X133698600Y-114920100D01*
%TO.N,Net-(D3-K)*%
X108300000Y-112200000D02*
X109401700Y-112200000D01*
X140080000Y-123400000D02*
X140080000Y-118288300D01*
X140175100Y-118193200D02*
X140080000Y-118288300D01*
X140175100Y-113246800D02*
X140175100Y-118193200D01*
X137061700Y-110133400D02*
X140175100Y-113246800D01*
X137061700Y-108039600D02*
X137061700Y-110133400D01*
X135655400Y-106633300D02*
X137061700Y-108039600D01*
X135655400Y-106363100D02*
X135655400Y-106633300D01*
X135302900Y-106010600D02*
X135655400Y-106363100D01*
X121854300Y-106010600D02*
X135302900Y-106010600D01*
X119591600Y-108273300D02*
X121854300Y-106010600D01*
X119591600Y-108854900D02*
X119591600Y-108273300D01*
X118639800Y-109806700D02*
X119591600Y-108854900D01*
X115877900Y-109806700D02*
X118639800Y-109806700D01*
X113484600Y-112200000D02*
X115877900Y-109806700D01*
X109401700Y-112200000D02*
X113484600Y-112200000D01*
%TO.N,Net-(D1-A)*%
X106248300Y-88750000D02*
X106998300Y-88000000D01*
X105155000Y-88750000D02*
X106248300Y-88750000D01*
X108100000Y-88000000D02*
X106998300Y-88000000D01*
%TO.N,Net-(D2-K)*%
X120250000Y-112160000D02*
X119148300Y-112160000D01*
X119007800Y-112019500D02*
X118144800Y-112019500D01*
X119148300Y-112160000D02*
X119007800Y-112019500D01*
X117805900Y-104729800D02*
X117575800Y-104959900D01*
X136676500Y-104729800D02*
X117805900Y-104729800D01*
X138719100Y-106772400D02*
X136676500Y-104729800D01*
X138719100Y-106888600D02*
X138719100Y-106772400D01*
X139358500Y-107528000D02*
X138719100Y-106888600D01*
X142316000Y-107528000D02*
X139358500Y-107528000D01*
X144394400Y-105449600D02*
X142316000Y-107528000D01*
X144394400Y-105329300D02*
X144394400Y-105449600D01*
X147030900Y-102692800D02*
X144394400Y-105329300D01*
X147903200Y-102692800D02*
X147030900Y-102692800D01*
X148880000Y-103669600D02*
X147903200Y-102692800D01*
X148880000Y-103989000D02*
X148880000Y-103669600D01*
X150159300Y-105268300D02*
X148880000Y-103989000D01*
X150790600Y-105268300D02*
X150159300Y-105268300D01*
X157860000Y-112337700D02*
X150790600Y-105268300D01*
X157860000Y-123400000D02*
X157860000Y-112337700D01*
%TO.N,Net-(D2-A)*%
X127870000Y-112160000D02*
X126768300Y-112160000D01*
X140945000Y-92363300D02*
X145308300Y-88000000D01*
X122784000Y-92363300D02*
X140945000Y-92363300D01*
X121990000Y-93157300D02*
X122784000Y-92363300D01*
X121990000Y-93773700D02*
X121990000Y-93157300D01*
X121192700Y-94571000D02*
X121990000Y-93773700D01*
X120250000Y-94571000D02*
X121192700Y-94571000D01*
X119281700Y-93602700D02*
X120250000Y-94571000D01*
X119281700Y-93465000D02*
X119281700Y-93602700D01*
X118180000Y-93465000D02*
X119281700Y-93465000D01*
X146410000Y-88000000D02*
X145308300Y-88000000D01*
X123917500Y-115010800D02*
X118477200Y-115010800D01*
X126768300Y-112160000D02*
X123917500Y-115010800D01*
%TO.N,+5V*%
X104041700Y-93236700D02*
X104041700Y-93465000D01*
X106318400Y-90960000D02*
X104041700Y-93236700D01*
X108100000Y-90960000D02*
X106318400Y-90960000D01*
X102940000Y-93465000D02*
X104041700Y-93465000D01*
X101838300Y-95668400D02*
X102940000Y-94566700D01*
X101838300Y-115606600D02*
X101838300Y-95668400D01*
X104520000Y-118288300D02*
X101838300Y-115606600D01*
X104520000Y-123400000D02*
X104520000Y-118288300D01*
X102940000Y-93465000D02*
X102940000Y-94566700D01*
X156230000Y-90070000D02*
X156260000Y-90100000D01*
X149370000Y-90070000D02*
X156230000Y-90070000D01*
%TO.N,GND*%
X157920000Y-103830000D02*
X150300000Y-103830000D01*
X150300000Y-108910000D02*
X149198300Y-108910000D01*
X139840000Y-108910000D02*
X140941700Y-108910000D01*
X143459100Y-108910000D02*
X140941700Y-108910000D01*
X144564000Y-110014900D02*
X143459100Y-108910000D01*
X148093400Y-110014900D02*
X144564000Y-110014900D01*
X149198300Y-108910000D02*
X148093400Y-110014900D01*
X103816700Y-89125600D02*
X103816700Y-88750000D01*
X104642800Y-89951700D02*
X103816700Y-89125600D01*
X105791600Y-89951700D02*
X104642800Y-89951700D01*
X105899200Y-89844100D02*
X105791600Y-89951700D01*
X109484100Y-89844100D02*
X105899200Y-89844100D01*
X110600000Y-90960000D02*
X109484100Y-89844100D01*
X102615000Y-88750000D02*
X103816700Y-88750000D01*
X139954000Y-90980000D02*
X120350000Y-90980000D01*
X144102500Y-86831500D02*
X139954000Y-90980000D01*
X148631500Y-86831500D02*
X144102500Y-86831500D01*
X149370000Y-87570000D02*
X148631500Y-86831500D01*
X149400000Y-87600000D02*
X149370000Y-87570000D01*
X156260000Y-87600000D02*
X149400000Y-87600000D01*
%TO.N,Net-(J1-~{MREQ})*%
X135000000Y-123400000D02*
X135000000Y-118288300D01*
X136929500Y-115968300D02*
X136929600Y-115968300D01*
X136929500Y-116358800D02*
X136929500Y-115968300D01*
X135000000Y-118288300D02*
X136929500Y-116358800D01*
%TO.N,Net-(J1-~{ROMCS})*%
X150300000Y-98750000D02*
X149198300Y-98750000D01*
X139840000Y-101290000D02*
X140941700Y-101290000D01*
X144571300Y-101290000D02*
X140941700Y-101290000D01*
X146009600Y-99851700D02*
X144571300Y-101290000D01*
X148096600Y-99851700D02*
X146009600Y-99851700D01*
X149198300Y-98750000D02*
X148096600Y-99851700D01*
%TO.N,Net-(J1-~{WR})*%
X137778600Y-107898600D02*
X136692600Y-106812600D01*
X137778600Y-110167400D02*
X137778600Y-107898600D01*
X142620000Y-115008800D02*
X137778600Y-110167400D01*
X142620000Y-123400000D02*
X142620000Y-115008800D01*
X106581700Y-93236700D02*
X106581700Y-93465000D01*
X107646000Y-92172400D02*
X106581700Y-93236700D01*
X112581800Y-92172400D02*
X107646000Y-92172400D01*
X115622500Y-89131700D02*
X112581800Y-92172400D01*
X120036600Y-89131700D02*
X115622500Y-89131700D01*
X121138300Y-88030000D02*
X120036600Y-89131700D01*
X122240000Y-88030000D02*
X121138300Y-88030000D01*
X105480000Y-93465000D02*
X106581700Y-93465000D01*
%TO.N,~{M1}*%
X147688300Y-104931700D02*
X147460000Y-104931700D01*
X148880000Y-106123400D02*
X147688300Y-104931700D01*
X148880000Y-106539600D02*
X148880000Y-106123400D01*
X149980400Y-107640000D02*
X148880000Y-106539600D01*
X150595200Y-107640000D02*
X149980400Y-107640000D01*
X155320000Y-112364800D02*
X150595200Y-107640000D01*
X155320000Y-123400000D02*
X155320000Y-112364800D01*
X147460000Y-103830000D02*
X147460000Y-104931700D01*
%TO.N,A15*%
X132110600Y-113915900D02*
X139573400Y-113915900D01*
X128057600Y-117968900D02*
X132110600Y-113915900D01*
X144429200Y-108299100D02*
X146358300Y-106370000D01*
X142431300Y-108299100D02*
X144429200Y-108299100D01*
X147460000Y-106370000D02*
X146358300Y-106370000D01*
%TO.N,A9*%
X114201700Y-93693300D02*
X114201700Y-93465000D01*
X117950900Y-97442500D02*
X114201700Y-93693300D01*
X124480800Y-97442500D02*
X117950900Y-97442500D01*
X113100000Y-93465000D02*
X114201700Y-93465000D01*
%TO.N,D5*%
X130880000Y-93465000D02*
X130880000Y-94566700D01*
X119760000Y-123400000D02*
X119760000Y-118288300D01*
X127389400Y-98057300D02*
X127389400Y-99617500D01*
X130880000Y-94566700D02*
X127389400Y-98057300D01*
X130178800Y-111792700D02*
X130178800Y-111320000D01*
X125931300Y-116040200D02*
X130178800Y-111792700D01*
X122008100Y-116040200D02*
X125931300Y-116040200D01*
X119760000Y-118288300D02*
X122008100Y-116040200D01*
%TO.N,A6*%
X110560000Y-108705000D02*
X111661700Y-108705000D01*
X137974900Y-105200400D02*
X143791100Y-105200400D01*
X137090100Y-104315600D02*
X137974900Y-105200400D01*
X115895800Y-104315600D02*
X137090100Y-104315600D01*
X111661700Y-108549700D02*
X115895800Y-104315600D01*
X111661700Y-108705000D02*
X111661700Y-108549700D01*
%TO.N,D6*%
X128340000Y-93465000D02*
X128340000Y-94566700D01*
X117556800Y-118288300D02*
X118175200Y-117669900D01*
X117220000Y-118288300D02*
X117556800Y-118288300D01*
X117220000Y-123400000D02*
X117220000Y-118288300D01*
X121233000Y-101673700D02*
X128340000Y-94566700D01*
X120804500Y-101673700D02*
X121233000Y-101673700D01*
%TO.N,D1*%
X112140000Y-123400000D02*
X112140000Y-118288300D01*
X130880000Y-108705000D02*
X129778300Y-108705000D01*
X129778300Y-108933300D02*
X129778300Y-108705000D01*
X128091700Y-110619900D02*
X129778300Y-108933300D01*
X124663300Y-110619900D02*
X128091700Y-110619900D01*
X121576000Y-113707200D02*
X124663300Y-110619900D01*
X116721100Y-113707200D02*
X121576000Y-113707200D01*
X112140000Y-118288300D02*
X116721100Y-113707200D01*
%TO.N,A12*%
X105480000Y-108705000D02*
X106581700Y-108705000D01*
X106581700Y-108933300D02*
X106581700Y-108705000D01*
X108242500Y-110594100D02*
X106581700Y-108933300D01*
X112548200Y-110594100D02*
X108242500Y-110594100D01*
X125479900Y-115637000D02*
X117850600Y-115637000D01*
X126525300Y-114591600D02*
X125479900Y-115637000D01*
%TO.N,A5*%
X113100000Y-108705000D02*
X114201700Y-108705000D01*
X139967600Y-110599000D02*
X144297200Y-110599000D01*
X138724900Y-109356300D02*
X139967600Y-110599000D01*
X138724900Y-107501000D02*
X138724900Y-109356300D01*
X137712000Y-106488100D02*
X138724900Y-107501000D01*
X137712000Y-106356900D02*
X137712000Y-106488100D01*
X136504100Y-105149000D02*
X137712000Y-106356900D01*
X118646200Y-105149000D02*
X136504100Y-105149000D01*
X116191900Y-107603300D02*
X118646200Y-105149000D01*
X115165600Y-107603300D02*
X116191900Y-107603300D01*
X114201700Y-108567200D02*
X115165600Y-107603300D01*
X114201700Y-108705000D02*
X114201700Y-108567200D01*
%TO.N,A8*%
X110560000Y-93465000D02*
X111661700Y-93465000D01*
X142250900Y-100254300D02*
X142401000Y-100104200D01*
X141951200Y-100254300D02*
X142250900Y-100254300D01*
X141951200Y-100254400D02*
X141951200Y-100254300D01*
X141429400Y-100776200D02*
X141951200Y-100254400D01*
X140931100Y-100776200D02*
X141429400Y-100776200D01*
X140303800Y-100148900D02*
X140931100Y-100776200D01*
X127846400Y-100148900D02*
X140303800Y-100148900D01*
X126865400Y-101129900D02*
X127846400Y-100148900D01*
X122378500Y-101129900D02*
X126865400Y-101129900D01*
X121233000Y-102275400D02*
X122378500Y-101129900D01*
X120264000Y-102275400D02*
X121233000Y-102275400D01*
X111661700Y-93673100D02*
X120264000Y-102275400D01*
X111661700Y-93465000D02*
X111661700Y-93673100D01*
%TO.N,A4*%
X115640000Y-108705000D02*
X116741700Y-108705000D01*
X146660000Y-117881600D02*
X154557600Y-117881600D01*
X138251000Y-109472600D02*
X146660000Y-117881600D01*
X138251000Y-107679400D02*
X138251000Y-109472600D01*
X137310300Y-106738700D02*
X138251000Y-107679400D01*
X137310300Y-106578800D02*
X137310300Y-106738700D01*
X136340400Y-105608900D02*
X137310300Y-106578800D01*
X119708000Y-105608900D02*
X136340400Y-105608900D01*
X116741700Y-108575200D02*
X119708000Y-105608900D01*
X116741700Y-108705000D02*
X116741700Y-108575200D01*
%TO.N,A1*%
X123260000Y-108705000D02*
X122158300Y-108705000D01*
X122158300Y-108933300D02*
X122158300Y-108705000D01*
X121202800Y-109888800D02*
X122158300Y-108933300D01*
X120763700Y-109888800D02*
X121202800Y-109888800D01*
X120345900Y-110306600D02*
X120763700Y-109888800D01*
%TO.N,A0*%
X125800000Y-108705000D02*
X124698300Y-108705000D01*
X122774300Y-110857300D02*
X121015700Y-110857300D01*
X124698300Y-108933300D02*
X122774300Y-110857300D01*
X124698300Y-108705000D02*
X124698300Y-108933300D01*
%TO.N,D2*%
X114680000Y-123400000D02*
X114680000Y-118288300D01*
X133420000Y-108705000D02*
X132318300Y-108705000D01*
X114680000Y-117929600D02*
X114680000Y-118288300D01*
X118311400Y-114298200D02*
X114680000Y-117929600D01*
X121553100Y-114298200D02*
X118311400Y-114298200D01*
X124828900Y-111022400D02*
X121553100Y-114298200D01*
X129536600Y-111022400D02*
X124828900Y-111022400D01*
X129907900Y-110651100D02*
X129536600Y-111022400D01*
X130600500Y-110651100D02*
X129907900Y-110651100D01*
X132318300Y-108933300D02*
X130600500Y-110651100D01*
X132318300Y-108705000D02*
X132318300Y-108933300D01*
%TO.N,D0*%
X127238300Y-108933300D02*
X127238300Y-108705000D01*
X126017700Y-110153900D02*
X127238300Y-108933300D01*
X124475900Y-110153900D02*
X126017700Y-110153900D01*
X121324300Y-113305500D02*
X124475900Y-110153900D01*
X114582800Y-113305500D02*
X121324300Y-113305500D01*
X109600000Y-118288300D02*
X114582800Y-113305500D01*
X109600000Y-123400000D02*
X109600000Y-118288300D01*
X128340000Y-108705000D02*
X127238300Y-108705000D01*
%TO.N,D3*%
X134521700Y-107144300D02*
X135053700Y-106612300D01*
X134521700Y-109266800D02*
X134521700Y-107144300D01*
X127146700Y-116641800D02*
X134521700Y-109266800D01*
X123946500Y-116641800D02*
X127146700Y-116641800D01*
X122300000Y-118288300D02*
X123946500Y-116641800D01*
X122300000Y-123400000D02*
X122300000Y-118288300D01*
%TO.N,D7*%
X102017700Y-118288300D02*
X102426100Y-117879900D01*
X101980000Y-118288300D02*
X102017700Y-118288300D01*
X101980000Y-123400000D02*
X101980000Y-118288300D01*
%TO.N,A13*%
X108020000Y-93465000D02*
X109121700Y-93465000D01*
X118105500Y-102677100D02*
X121970200Y-102677100D01*
X109121700Y-93693300D02*
X118105500Y-102677100D01*
X109121700Y-93465000D02*
X109121700Y-93693300D01*
%TO.N,A7*%
X108020000Y-108705000D02*
X109121700Y-108705000D01*
X136980300Y-103787400D02*
X137992900Y-102774800D01*
X113901600Y-103787400D02*
X136980300Y-103787400D01*
X109121700Y-108567300D02*
X113901600Y-103787400D01*
X109121700Y-108705000D02*
X109121700Y-108567300D01*
%TO.N,D4*%
X124830000Y-123400000D02*
X124830000Y-118288300D01*
X126349800Y-118288300D02*
X124830000Y-118288300D01*
X131750000Y-112888100D02*
X126349800Y-118288300D01*
X137144400Y-112888100D02*
X131750000Y-112888100D01*
%TD*%
M02*
