%TF.GenerationSoftware,KiCad,Pcbnew,8.0.2*%
%TF.CreationDate,2024-05-20T10:45:04+02:00*%
%TF.ProjectId,zx81-external-16k,7a783831-2d65-4787-9465-726e616c2d31,rev?*%
%TF.SameCoordinates,Original*%
%TF.FileFunction,Copper,L1,Top*%
%TF.FilePolarity,Positive*%
%FSLAX46Y46*%
G04 Gerber Fmt 4.6, Leading zero omitted, Abs format (unit mm)*
G04 Created by KiCad (PCBNEW 8.0.2) date 2024-05-20 10:45:04*
%MOMM*%
%LPD*%
G01*
G04 APERTURE LIST*
%TA.AperFunction,ComponentPad*%
%ADD10C,1.400000*%
%TD*%
%TA.AperFunction,ComponentPad*%
%ADD11O,1.400000X1.400000*%
%TD*%
%TA.AperFunction,ComponentPad*%
%ADD12R,1.600000X1.600000*%
%TD*%
%TA.AperFunction,ComponentPad*%
%ADD13O,1.600000X1.600000*%
%TD*%
%TA.AperFunction,ConnectorPad*%
%ADD14R,1.778000X9.620000*%
%TD*%
%TA.AperFunction,ComponentPad*%
%ADD15R,1.800000X1.800000*%
%TD*%
%TA.AperFunction,ComponentPad*%
%ADD16C,1.800000*%
%TD*%
%TA.AperFunction,ComponentPad*%
%ADD17C,1.600000*%
%TD*%
%TA.AperFunction,ViaPad*%
%ADD18C,0.600000*%
%TD*%
%TA.AperFunction,Conductor*%
%ADD19C,0.200000*%
%TD*%
G04 APERTURE END LIST*
D10*
%TO.P,R2,1*%
%TO.N,+5V*%
X144330000Y-111200000D03*
D11*
%TO.P,R2,2*%
%TO.N,Net-(D2-A)*%
X149410000Y-111200000D03*
%TD*%
D12*
%TO.P,U1,1,A14*%
%TO.N,GND*%
X107740000Y-107100000D03*
D13*
%TO.P,U1,2,A12*%
%TO.N,A12*%
X110280000Y-107100000D03*
%TO.P,U1,3,A7*%
%TO.N,A7*%
X112820000Y-107100000D03*
%TO.P,U1,4,A6*%
%TO.N,A6*%
X115360000Y-107100000D03*
%TO.P,U1,5,A5*%
%TO.N,A5*%
X117900000Y-107100000D03*
%TO.P,U1,6,A4*%
%TO.N,A4*%
X120440000Y-107100000D03*
%TO.P,U1,7,A3*%
%TO.N,A3*%
X122980000Y-107100000D03*
%TO.P,U1,8,A2*%
%TO.N,A2*%
X125520000Y-107100000D03*
%TO.P,U1,9,A1*%
%TO.N,A1*%
X128060000Y-107100000D03*
%TO.P,U1,10,A0*%
%TO.N,A0*%
X130600000Y-107100000D03*
%TO.P,U1,11,Q0*%
%TO.N,D0*%
X133140000Y-107100000D03*
%TO.P,U1,12,Q1*%
%TO.N,D1*%
X135680000Y-107100000D03*
%TO.P,U1,13,Q2*%
%TO.N,D2*%
X138220000Y-107100000D03*
%TO.P,U1,14,GND*%
%TO.N,GND*%
X140760000Y-107100000D03*
%TO.P,U1,15,Q3*%
%TO.N,D3*%
X140760000Y-91860000D03*
%TO.P,U1,16,Q4*%
%TO.N,D4*%
X138220000Y-91860000D03*
%TO.P,U1,17,Q5*%
%TO.N,D5*%
X135680000Y-91860000D03*
%TO.P,U1,18,Q6*%
%TO.N,D6*%
X133140000Y-91860000D03*
%TO.P,U1,19,Q7*%
%TO.N,D7*%
X130600000Y-91860000D03*
%TO.P,U1,20,~{CS}*%
%TO.N,Net-(U1-~{CS})*%
X128060000Y-91860000D03*
%TO.P,U1,21,A10*%
%TO.N,A10*%
X125520000Y-91860000D03*
%TO.P,U1,22,~{OE}*%
%TO.N,Net-(D2-A)*%
X122980000Y-91860000D03*
%TO.P,U1,23,A11*%
%TO.N,A11*%
X120440000Y-91860000D03*
%TO.P,U1,24,A9*%
%TO.N,A9*%
X117900000Y-91860000D03*
%TO.P,U1,25,A8*%
%TO.N,A8*%
X115360000Y-91860000D03*
%TO.P,U1,26,A13*%
%TO.N,A13*%
X112820000Y-91860000D03*
%TO.P,U1,27,~{WE}*%
%TO.N,Net-(J1-~{WR})*%
X110280000Y-91860000D03*
%TO.P,U1,28,VCC*%
%TO.N,+5V*%
X107740000Y-91860000D03*
%TD*%
D14*
%TO.P,J1,B3,D7*%
%TO.N,D7*%
X101974600Y-123480000D03*
%TO.P,J1,B4,~{RAMCS}*%
%TO.N,+5V*%
X104514600Y-123480000D03*
%TO.P,J1,B6,D0*%
%TO.N,D0*%
X109594600Y-123480000D03*
%TO.P,J1,B7,D1*%
%TO.N,D1*%
X112134600Y-123480000D03*
%TO.P,J1,B8,D2*%
%TO.N,D2*%
X114674600Y-123480000D03*
%TO.P,J1,B9,D6*%
%TO.N,D6*%
X117214600Y-123480000D03*
%TO.P,J1,B10,D5*%
%TO.N,D5*%
X119754600Y-123480000D03*
%TO.P,J1,B11,D3*%
%TO.N,D3*%
X122294600Y-123480000D03*
%TO.P,J1,B12,D4*%
%TO.N,D4*%
X124824600Y-123480000D03*
%TO.P,J1,B13,~{INT}*%
%TO.N,unconnected-(J1-~{INT}-PadB13)*%
X127374600Y-123480000D03*
%TO.P,J1,B14,~{NMI}*%
%TO.N,unconnected-(J1-~{NMI}-PadB14)*%
X129914600Y-123480000D03*
%TO.P,J1,B15,~{HALT}*%
%TO.N,unconnected-(J1-~{HALT}-PadB15)*%
X132454600Y-123480000D03*
%TO.P,J1,B16,~{MREQ}*%
%TO.N,Net-(J1-~{MREQ})*%
X134994600Y-123480000D03*
%TO.P,J1,B17,~{IOREQ}*%
%TO.N,unconnected-(J1-~{IOREQ}-PadB17)*%
X137534600Y-123480000D03*
%TO.P,J1,B18,~{RD}*%
%TO.N,Net-(D3-K)*%
X140074600Y-123480000D03*
%TO.P,J1,B19,~{WR}*%
%TO.N,Net-(J1-~{WR})*%
X142614600Y-123480000D03*
%TO.P,J1,B20,~{BUSAC}*%
%TO.N,unconnected-(J1-~{BUSAC}-PadB20)*%
X145154600Y-123480000D03*
%TO.P,J1,B21,~{WAIT}*%
%TO.N,unconnected-(J1-~{WAIT}-PadB21)*%
X147694600Y-123480000D03*
%TO.P,J1,B22,~{BUSRQ}*%
%TO.N,unconnected-(J1-~{BUSRQ}-PadB22)*%
X150234600Y-123480000D03*
%TO.P,J1,B23,~{RESET}*%
%TO.N,unconnected-(J1-~{RESET}-PadB23)*%
X152774600Y-123480000D03*
%TO.P,J1,B24,~{M1}*%
%TO.N,unconnected-(J1-~{M1}-PadB24)*%
X155314600Y-123480000D03*
%TO.P,J1,B25,~{RFSH}*%
%TO.N,Net-(D2-K)*%
X157854600Y-123480000D03*
%TD*%
D15*
%TO.P,D1,1,K*%
%TO.N,GND*%
X102195000Y-99240000D03*
D16*
%TO.P,D1,2,A*%
%TO.N,Net-(D1-A)*%
X104735000Y-99240000D03*
%TD*%
D12*
%TO.P,U2,1*%
%TO.N,Net-(J1-~{MREQ})*%
X146100000Y-92320000D03*
D13*
%TO.P,U2,2*%
X146100000Y-94860000D03*
%TO.P,U2,3*%
%TO.N,Net-(U2-Pad3)*%
X146100000Y-97400000D03*
%TO.P,U2,4*%
%TO.N,Net-(J1-PadA14)*%
X146100000Y-99940000D03*
%TO.P,U2,5*%
%TO.N,Net-(U2-Pad3)*%
X146100000Y-102480000D03*
%TO.P,U2,6*%
%TO.N,Net-(U1-~{CS})*%
X146100000Y-105020000D03*
%TO.P,U2,7,GND*%
%TO.N,GND*%
X146100000Y-107560000D03*
%TO.P,U2,8*%
%TO.N,unconnected-(U2-Pad8)*%
X153720000Y-107560000D03*
%TO.P,U2,9*%
%TO.N,GND*%
X153720000Y-105020000D03*
%TO.P,U2,10*%
X153720000Y-102480000D03*
%TO.P,U2,11*%
%TO.N,unconnected-(U2-Pad11)*%
X153720000Y-99940000D03*
%TO.P,U2,12*%
%TO.N,GND*%
X153720000Y-97400000D03*
%TO.P,U2,13*%
X153720000Y-94860000D03*
%TO.P,U2,14,VCC*%
%TO.N,+5V*%
X153720000Y-92320000D03*
%TD*%
D17*
%TO.P,C2,1*%
%TO.N,+5V*%
X156550000Y-91810000D03*
%TO.P,C2,2*%
%TO.N,GND*%
X156550000Y-94310000D03*
%TD*%
%TO.P,C1,1*%
%TO.N,+5V*%
X104060000Y-91780000D03*
%TO.P,C1,2*%
%TO.N,GND*%
X104060000Y-94280000D03*
%TD*%
D10*
%TO.P,R1,1*%
%TO.N,+5V*%
X113300000Y-111200000D03*
D11*
%TO.P,R1,2*%
%TO.N,Net-(D1-A)*%
X108220000Y-111200000D03*
%TD*%
D12*
%TO.P,D3,1,K*%
%TO.N,Net-(D3-K)*%
X131480000Y-111200000D03*
D13*
%TO.P,D3,2,A*%
%TO.N,Net-(D2-A)*%
X139100000Y-111200000D03*
%TD*%
D12*
%TO.P,D2,1,K*%
%TO.N,Net-(D2-K)*%
X118530000Y-111200000D03*
D13*
%TO.P,D2,2,A*%
%TO.N,Net-(D2-A)*%
X126150000Y-111200000D03*
%TD*%
D18*
%TO.N,D4*%
X141228000Y-116062000D03*
%TO.N,A7*%
X116599000Y-113573000D03*
X143845000Y-115662000D03*
%TO.N,D3*%
X142164000Y-115400000D03*
%TO.N,A4*%
X121148000Y-113265000D03*
X147291000Y-114011000D03*
%TO.N,A5*%
X119663000Y-112664000D03*
X148753000Y-114615000D03*
%TO.N,A12*%
X116497000Y-114874000D03*
X133186000Y-114874000D03*
%TO.N,D6*%
X140904000Y-114744000D03*
%TO.N,A6*%
X146992000Y-110215000D03*
%TO.N,D5*%
X125334000Y-104926000D03*
X123477000Y-116221000D03*
%TO.N,Net-(J1-~{WR})*%
X117352000Y-114271000D03*
%TO.N,Net-(J1-~{MREQ})*%
X141734000Y-117068000D03*
%TO.N,Net-(J1-PadA14)*%
X129330000Y-104926000D03*
%TO.N,Net-(D3-K)*%
X136625000Y-111200000D03*
X139448000Y-118121000D03*
%TD*%
D19*
%TO.N,D4*%
X140623000Y-116667000D02*
X141228000Y-116062000D01*
X124824600Y-120924400D02*
X124824600Y-123480000D01*
X124825000Y-123480000D02*
X124825000Y-120924000D01*
X124825000Y-120924000D02*
X124824600Y-120924400D01*
X124825000Y-118368000D02*
X126526000Y-116667000D01*
X126526000Y-116667000D02*
X140623000Y-116667000D01*
X124825000Y-120924000D02*
X124825000Y-118368000D01*
%TO.N,A7*%
X118454000Y-113573000D02*
X116599000Y-113573000D01*
X140141000Y-113867000D02*
X118748000Y-113867000D01*
X140268000Y-113741000D02*
X140141000Y-113867000D01*
X143845000Y-115662000D02*
X141924000Y-113741000D01*
X141924000Y-113741000D02*
X140268000Y-113741000D01*
X118748000Y-113867000D02*
X118454000Y-113573000D01*
%TO.N,D7*%
X127477000Y-94109700D02*
X118699000Y-94109700D01*
X101975000Y-117157000D02*
X101975000Y-123480000D01*
X129498000Y-91860000D02*
X129498000Y-92088300D01*
X118699000Y-94109700D02*
X101975000Y-110834000D01*
X129498000Y-92088300D02*
X127477000Y-94109700D01*
X101975000Y-117157000D02*
X101974600Y-117157400D01*
X101974600Y-117157400D02*
X101974600Y-123480000D01*
X130600000Y-91860000D02*
X129498000Y-91860000D01*
X101975000Y-110834000D02*
X101975000Y-117157000D01*
%TO.N,D3*%
X122295000Y-121024000D02*
X122295000Y-118368000D01*
X137848000Y-115400000D02*
X142164000Y-115400000D01*
X122294600Y-121024400D02*
X122294600Y-123480000D01*
X137085000Y-116164000D02*
X137848000Y-115400000D01*
X122295000Y-123480000D02*
X122295000Y-121024000D01*
X122295000Y-121024000D02*
X122294600Y-121024400D01*
X122295000Y-118368000D02*
X124499000Y-116164000D01*
X124499000Y-116164000D02*
X137085000Y-116164000D01*
%TO.N,D0*%
X130920000Y-108447000D02*
X118104000Y-108447000D01*
X132038000Y-107100000D02*
X132038000Y-107328000D01*
X109595000Y-120218500D02*
X109594600Y-120218900D01*
X118104000Y-108447000D02*
X109595000Y-116957000D01*
X133140000Y-107100000D02*
X132038000Y-107100000D01*
X109595000Y-120218500D02*
X109595000Y-123480000D01*
X132038000Y-107328000D02*
X130920000Y-108447000D01*
X109595000Y-116957000D02*
X109595000Y-120218500D01*
X109594600Y-120218900D02*
X109594600Y-123480000D01*
%TO.N,D2*%
X116650000Y-112000000D02*
X114675000Y-113975000D01*
X117727000Y-109960000D02*
X116650000Y-111037000D01*
X125902000Y-109960000D02*
X117727000Y-109960000D01*
X137118000Y-107328000D02*
X134852000Y-109594000D01*
X114675000Y-113975000D02*
X114675000Y-118727500D01*
X134852000Y-109594000D02*
X126268000Y-109594000D01*
X114675000Y-118727500D02*
X114675000Y-123480000D01*
X114674600Y-118727900D02*
X114674600Y-123480000D01*
X126268000Y-109594000D02*
X125902000Y-109960000D01*
X138220000Y-107100000D02*
X137118000Y-107100000D01*
X137118000Y-107100000D02*
X137118000Y-107328000D01*
X116650000Y-111037000D02*
X116650000Y-112000000D01*
X114675000Y-118727500D02*
X114674600Y-118727900D01*
%TO.N,A4*%
X146546000Y-113265000D02*
X121148000Y-113265000D01*
X147291000Y-114011000D02*
X146546000Y-113265000D01*
%TO.N,A5*%
X148753000Y-114615000D02*
X146912000Y-112774000D01*
X146912000Y-112774000D02*
X121507000Y-112774000D01*
X121507000Y-112774000D02*
X121397000Y-112664000D01*
X121397000Y-112664000D02*
X119663000Y-112664000D01*
%TO.N,A12*%
X133186000Y-114874000D02*
X116497000Y-114874000D01*
%TO.N,D1*%
X116207000Y-111480000D02*
X112135000Y-115553000D01*
X133006000Y-108849000D02*
X126086000Y-108849000D01*
X125376000Y-109559000D02*
X117560000Y-109559000D01*
X126086000Y-108849000D02*
X125376000Y-109559000D01*
X112135000Y-115553000D02*
X112135000Y-119516500D01*
X134578000Y-107100000D02*
X134578000Y-107277000D01*
X112134600Y-119516900D02*
X112134600Y-123480000D01*
X116207000Y-110912000D02*
X116207000Y-111480000D01*
X135680000Y-107100000D02*
X134578000Y-107100000D01*
X134578000Y-107277000D02*
X133006000Y-108849000D01*
X112135000Y-119516500D02*
X112135000Y-123480000D01*
X117560000Y-109559000D02*
X116207000Y-110912000D01*
X112135000Y-119516500D02*
X112134600Y-119516900D01*
%TO.N,D6*%
X117215000Y-118368000D02*
X119964000Y-115619000D01*
X134802000Y-114744000D02*
X140904000Y-114744000D01*
X117214600Y-120924400D02*
X117214600Y-123480000D01*
X117215000Y-120924000D02*
X117215000Y-118368000D01*
X133928000Y-115619000D02*
X134802000Y-114744000D01*
X119964000Y-115619000D02*
X133928000Y-115619000D01*
X117215000Y-123480000D02*
X117215000Y-120924000D01*
X117215000Y-120924000D02*
X117214600Y-120924400D01*
%TO.N,A6*%
X116462000Y-107100000D02*
X116462000Y-106872000D01*
X146389000Y-109612000D02*
X146992000Y-110215000D01*
X117349000Y-105985000D02*
X138674000Y-105985000D01*
X141711000Y-109612000D02*
X146389000Y-109612000D01*
X116462000Y-106872000D02*
X117349000Y-105985000D01*
X139322000Y-107222000D02*
X141711000Y-109612000D01*
X139322000Y-106632000D02*
X139322000Y-107222000D01*
X138674000Y-105985000D02*
X139322000Y-106632000D01*
X115360000Y-107100000D02*
X116462000Y-107100000D01*
%TO.N,D5*%
X119754600Y-120924400D02*
X119754600Y-123480000D01*
X119755000Y-120924000D02*
X119755000Y-118368000D01*
X119755000Y-118368000D02*
X121330000Y-118368000D01*
X119755000Y-123480000D02*
X119755000Y-120924000D01*
X135680000Y-94579600D02*
X135680000Y-91860000D01*
X125334000Y-104926000D02*
X135680000Y-94579600D01*
X121330000Y-118368000D02*
X123477000Y-116221000D01*
X119755000Y-120924000D02*
X119754600Y-120924400D01*
%TO.N,Net-(J1-~{WR})*%
X142615000Y-123480000D02*
X142615000Y-120924000D01*
X142766000Y-118217000D02*
X142766000Y-115151000D01*
X142412000Y-114798000D02*
X142093000Y-114798000D01*
X142766000Y-115151000D02*
X142412000Y-114798000D01*
X142615000Y-118368000D02*
X142766000Y-118217000D01*
X142615000Y-120924000D02*
X142614600Y-120924400D01*
X141438000Y-114142000D02*
X140434000Y-114142000D01*
X142093000Y-114798000D02*
X141438000Y-114142000D01*
X142615000Y-120924000D02*
X142615000Y-118368000D01*
X140306000Y-114271000D02*
X117352000Y-114271000D01*
X142614600Y-120924400D02*
X142614600Y-123480000D01*
X140434000Y-114142000D02*
X140306000Y-114271000D01*
%TO.N,Net-(J1-~{MREQ})*%
X134995000Y-123480000D02*
X134995000Y-120924000D01*
X141732000Y-117069000D02*
X141734000Y-117068000D01*
X136294000Y-117069000D02*
X141732000Y-117069000D01*
X134995000Y-120924000D02*
X134994600Y-120924400D01*
X134995000Y-120924000D02*
X134995000Y-118368000D01*
X134994600Y-120924400D02*
X134994600Y-123480000D01*
X134995000Y-118368000D02*
X136294000Y-117069000D01*
%TO.N,GND*%
X152618000Y-105020000D02*
X150078000Y-107560000D01*
X144538000Y-107100000D02*
X140760000Y-107100000D01*
X146100000Y-107560000D02*
X144998000Y-107560000D01*
X153720000Y-105020000D02*
X152618000Y-105020000D01*
X108842000Y-106975000D02*
X110237000Y-105580000D01*
X107740000Y-107100000D02*
X108842000Y-107100000D01*
X108842000Y-107100000D02*
X108842000Y-106975000D01*
X153720000Y-94860000D02*
X154822000Y-94860000D01*
X155372000Y-94310000D02*
X156550000Y-94310000D01*
X154822000Y-94860000D02*
X155372000Y-94310000D01*
X150078000Y-107560000D02*
X146100000Y-107560000D01*
X139240000Y-105580000D02*
X140760000Y-107100000D01*
X144998000Y-107560000D02*
X144538000Y-107100000D01*
X110237000Y-105580000D02*
X139240000Y-105580000D01*
%TO.N,+5V*%
X104515000Y-118368000D02*
X106132000Y-118368000D01*
X106558000Y-91780000D02*
X104060000Y-91780000D01*
X152618000Y-92320000D02*
X153720000Y-92320000D01*
X155332000Y-91810000D02*
X154822000Y-92320000D01*
X104515000Y-120924000D02*
X104514600Y-120924400D01*
X150653000Y-90355000D02*
X152618000Y-92320000D01*
X106132000Y-118368000D02*
X113300000Y-111200000D01*
X110209000Y-90355000D02*
X150653000Y-90355000D01*
X108842000Y-91860000D02*
X108842000Y-91722300D01*
X108842000Y-91722300D02*
X110209000Y-90355000D01*
X104515000Y-120924000D02*
X104515000Y-118368000D01*
X106638000Y-91860000D02*
X106558000Y-91780000D01*
X104515000Y-123480000D02*
X104515000Y-120924000D01*
X104514600Y-120924400D02*
X104514600Y-123480000D01*
X107740000Y-91860000D02*
X108842000Y-91860000D01*
X154822000Y-92320000D02*
X153720000Y-92320000D01*
X107740000Y-91860000D02*
X106638000Y-91860000D01*
X156550000Y-91810000D02*
X155332000Y-91810000D01*
%TO.N,Net-(D2-A)*%
X136855000Y-110057000D02*
X137998000Y-111200000D01*
X141204000Y-110198000D02*
X146081000Y-110198000D01*
X126150000Y-111200000D02*
X127252000Y-111200000D01*
X147083000Y-111200000D02*
X149410000Y-111200000D01*
X137998000Y-111200000D02*
X139100000Y-111200000D01*
X139100000Y-111200000D02*
X140202000Y-111200000D01*
X146081000Y-110198000D02*
X147083000Y-111200000D01*
X140202000Y-111200000D02*
X141204000Y-110198000D01*
X128395000Y-110057000D02*
X136855000Y-110057000D01*
X127252000Y-111200000D02*
X128395000Y-110057000D01*
%TO.N,Net-(J1-PadA14)*%
X140012000Y-104926000D02*
X129330000Y-104926000D01*
X146100000Y-99940000D02*
X144998000Y-99940000D01*
X144998000Y-99940000D02*
X140012000Y-104926000D01*
%TO.N,Net-(D2-K)*%
X120501000Y-111200000D02*
X118530000Y-111200000D01*
X157855000Y-118368000D02*
X151794000Y-112308000D01*
X151794000Y-112308000D02*
X121609000Y-112308000D01*
X157854600Y-120924400D02*
X157854600Y-123480000D01*
X157855000Y-123480000D02*
X157855000Y-120924000D01*
X121609000Y-112308000D02*
X120501000Y-111200000D01*
X157855000Y-120924000D02*
X157854600Y-120924400D01*
X157855000Y-120924000D02*
X157855000Y-118368000D01*
%TO.N,Net-(D3-K)*%
X139696000Y-118368000D02*
X140075000Y-118368000D01*
X140075000Y-118368000D02*
X140075000Y-120924000D01*
X140075000Y-120924000D02*
X140075000Y-123480000D01*
X140075000Y-120924000D02*
X140074600Y-120924400D01*
X131480000Y-111200000D02*
X136625000Y-111200000D01*
X140074600Y-120924400D02*
X140074600Y-123480000D01*
X139448000Y-118121000D02*
X139696000Y-118368000D01*
%TD*%
M02*
