%TF.GenerationSoftware,KiCad,Pcbnew,8.0.2-1*%
%TF.CreationDate,2024-06-12T00:12:27+02:00*%
%TF.ProjectId,zx81-external-16k,7a783831-2d65-4787-9465-726e616c2d31,rev?*%
%TF.SameCoordinates,Original*%
%TF.FileFunction,Legend,Bot*%
%TF.FilePolarity,Positive*%
%FSLAX46Y46*%
G04 Gerber Fmt 4.6, Leading zero omitted, Abs format (unit mm)*
G04 Created by KiCad (PCBNEW 8.0.2-1) date 2024-06-12 00:12:27*
%MOMM*%
%LPD*%
G01*
G04 APERTURE LIST*
%ADD10C,0.300000*%
%ADD11C,0.100000*%
G04 APERTURE END LIST*
D10*
X136318346Y-95755912D02*
X135318346Y-95755912D01*
X135318346Y-95755912D02*
X136318346Y-97255912D01*
X136318346Y-97255912D02*
X135318346Y-97255912D01*
X134889775Y-95755912D02*
X133889775Y-97255912D01*
X133889775Y-95755912D02*
X134889775Y-97255912D01*
X133104061Y-96398769D02*
X133246918Y-96327341D01*
X133246918Y-96327341D02*
X133318347Y-96255912D01*
X133318347Y-96255912D02*
X133389775Y-96113055D01*
X133389775Y-96113055D02*
X133389775Y-96041626D01*
X133389775Y-96041626D02*
X133318347Y-95898769D01*
X133318347Y-95898769D02*
X133246918Y-95827341D01*
X133246918Y-95827341D02*
X133104061Y-95755912D01*
X133104061Y-95755912D02*
X132818347Y-95755912D01*
X132818347Y-95755912D02*
X132675490Y-95827341D01*
X132675490Y-95827341D02*
X132604061Y-95898769D01*
X132604061Y-95898769D02*
X132532632Y-96041626D01*
X132532632Y-96041626D02*
X132532632Y-96113055D01*
X132532632Y-96113055D02*
X132604061Y-96255912D01*
X132604061Y-96255912D02*
X132675490Y-96327341D01*
X132675490Y-96327341D02*
X132818347Y-96398769D01*
X132818347Y-96398769D02*
X133104061Y-96398769D01*
X133104061Y-96398769D02*
X133246918Y-96470198D01*
X133246918Y-96470198D02*
X133318347Y-96541626D01*
X133318347Y-96541626D02*
X133389775Y-96684484D01*
X133389775Y-96684484D02*
X133389775Y-96970198D01*
X133389775Y-96970198D02*
X133318347Y-97113055D01*
X133318347Y-97113055D02*
X133246918Y-97184484D01*
X133246918Y-97184484D02*
X133104061Y-97255912D01*
X133104061Y-97255912D02*
X132818347Y-97255912D01*
X132818347Y-97255912D02*
X132675490Y-97184484D01*
X132675490Y-97184484D02*
X132604061Y-97113055D01*
X132604061Y-97113055D02*
X132532632Y-96970198D01*
X132532632Y-96970198D02*
X132532632Y-96684484D01*
X132532632Y-96684484D02*
X132604061Y-96541626D01*
X132604061Y-96541626D02*
X132675490Y-96470198D01*
X132675490Y-96470198D02*
X132818347Y-96398769D01*
X131104061Y-97255912D02*
X131961204Y-97255912D01*
X131532633Y-97255912D02*
X131532633Y-95755912D01*
X131532633Y-95755912D02*
X131675490Y-95970198D01*
X131675490Y-95970198D02*
X131818347Y-96113055D01*
X131818347Y-96113055D02*
X131961204Y-96184484D01*
X128532633Y-97255912D02*
X129389776Y-97255912D01*
X128961205Y-97255912D02*
X128961205Y-95755912D01*
X128961205Y-95755912D02*
X129104062Y-95970198D01*
X129104062Y-95970198D02*
X129246919Y-96113055D01*
X129246919Y-96113055D02*
X129389776Y-96184484D01*
X127246920Y-95755912D02*
X127532634Y-95755912D01*
X127532634Y-95755912D02*
X127675491Y-95827341D01*
X127675491Y-95827341D02*
X127746920Y-95898769D01*
X127746920Y-95898769D02*
X127889777Y-96113055D01*
X127889777Y-96113055D02*
X127961205Y-96398769D01*
X127961205Y-96398769D02*
X127961205Y-96970198D01*
X127961205Y-96970198D02*
X127889777Y-97113055D01*
X127889777Y-97113055D02*
X127818348Y-97184484D01*
X127818348Y-97184484D02*
X127675491Y-97255912D01*
X127675491Y-97255912D02*
X127389777Y-97255912D01*
X127389777Y-97255912D02*
X127246920Y-97184484D01*
X127246920Y-97184484D02*
X127175491Y-97113055D01*
X127175491Y-97113055D02*
X127104062Y-96970198D01*
X127104062Y-96970198D02*
X127104062Y-96613055D01*
X127104062Y-96613055D02*
X127175491Y-96470198D01*
X127175491Y-96470198D02*
X127246920Y-96398769D01*
X127246920Y-96398769D02*
X127389777Y-96327341D01*
X127389777Y-96327341D02*
X127675491Y-96327341D01*
X127675491Y-96327341D02*
X127818348Y-96398769D01*
X127818348Y-96398769D02*
X127889777Y-96470198D01*
X127889777Y-96470198D02*
X127961205Y-96613055D01*
X125389777Y-95684484D02*
X126675491Y-97613055D01*
X125032634Y-95755912D02*
X124104062Y-95755912D01*
X124104062Y-95755912D02*
X124604062Y-96327341D01*
X124604062Y-96327341D02*
X124389777Y-96327341D01*
X124389777Y-96327341D02*
X124246920Y-96398769D01*
X124246920Y-96398769D02*
X124175491Y-96470198D01*
X124175491Y-96470198D02*
X124104062Y-96613055D01*
X124104062Y-96613055D02*
X124104062Y-96970198D01*
X124104062Y-96970198D02*
X124175491Y-97113055D01*
X124175491Y-97113055D02*
X124246920Y-97184484D01*
X124246920Y-97184484D02*
X124389777Y-97255912D01*
X124389777Y-97255912D02*
X124818348Y-97255912D01*
X124818348Y-97255912D02*
X124961205Y-97184484D01*
X124961205Y-97184484D02*
X125032634Y-97113055D01*
X123532634Y-95898769D02*
X123461206Y-95827341D01*
X123461206Y-95827341D02*
X123318349Y-95755912D01*
X123318349Y-95755912D02*
X122961206Y-95755912D01*
X122961206Y-95755912D02*
X122818349Y-95827341D01*
X122818349Y-95827341D02*
X122746920Y-95898769D01*
X122746920Y-95898769D02*
X122675491Y-96041626D01*
X122675491Y-96041626D02*
X122675491Y-96184484D01*
X122675491Y-96184484D02*
X122746920Y-96398769D01*
X122746920Y-96398769D02*
X123604063Y-97255912D01*
X123604063Y-97255912D02*
X122675491Y-97255912D01*
X122032635Y-97255912D02*
X122032635Y-95755912D01*
X121175492Y-97255912D02*
X121818349Y-96398769D01*
X121175492Y-95755912D02*
X122032635Y-96613055D01*
X118532635Y-97255912D02*
X119032635Y-96541626D01*
X119389778Y-97255912D02*
X119389778Y-95755912D01*
X119389778Y-95755912D02*
X118818349Y-95755912D01*
X118818349Y-95755912D02*
X118675492Y-95827341D01*
X118675492Y-95827341D02*
X118604063Y-95898769D01*
X118604063Y-95898769D02*
X118532635Y-96041626D01*
X118532635Y-96041626D02*
X118532635Y-96255912D01*
X118532635Y-96255912D02*
X118604063Y-96398769D01*
X118604063Y-96398769D02*
X118675492Y-96470198D01*
X118675492Y-96470198D02*
X118818349Y-96541626D01*
X118818349Y-96541626D02*
X119389778Y-96541626D01*
X117961206Y-96827341D02*
X117246921Y-96827341D01*
X118104063Y-97255912D02*
X117604063Y-95755912D01*
X117604063Y-95755912D02*
X117104063Y-97255912D01*
X116604064Y-97255912D02*
X116604064Y-95755912D01*
X116604064Y-95755912D02*
X116104064Y-96827341D01*
X116104064Y-96827341D02*
X115604064Y-95755912D01*
X115604064Y-95755912D02*
X115604064Y-97255912D01*
X113889778Y-96255912D02*
X113532635Y-97255912D01*
X113532635Y-97255912D02*
X113175492Y-96255912D01*
X111818349Y-97255912D02*
X112675492Y-97255912D01*
X112246921Y-97255912D02*
X112246921Y-95755912D01*
X112246921Y-95755912D02*
X112389778Y-95970198D01*
X112389778Y-95970198D02*
X112532635Y-96113055D01*
X112532635Y-96113055D02*
X112675492Y-96184484D01*
X111175493Y-97113055D02*
X111104064Y-97184484D01*
X111104064Y-97184484D02*
X111175493Y-97255912D01*
X111175493Y-97255912D02*
X111246921Y-97184484D01*
X111246921Y-97184484D02*
X111175493Y-97113055D01*
X111175493Y-97113055D02*
X111175493Y-97255912D01*
X109675492Y-97255912D02*
X110532635Y-97255912D01*
X110104064Y-97255912D02*
X110104064Y-95755912D01*
X110104064Y-95755912D02*
X110246921Y-95970198D01*
X110246921Y-95970198D02*
X110389778Y-96113055D01*
X110389778Y-96113055D02*
X110532635Y-96184484D01*
X135032632Y-99099400D02*
X133889775Y-99099400D01*
X132032632Y-99670828D02*
X132032632Y-98170828D01*
X132032632Y-98742257D02*
X131889775Y-98670828D01*
X131889775Y-98670828D02*
X131604060Y-98670828D01*
X131604060Y-98670828D02*
X131461203Y-98742257D01*
X131461203Y-98742257D02*
X131389775Y-98813685D01*
X131389775Y-98813685D02*
X131318346Y-98956542D01*
X131318346Y-98956542D02*
X131318346Y-99385114D01*
X131318346Y-99385114D02*
X131389775Y-99527971D01*
X131389775Y-99527971D02*
X131461203Y-99599400D01*
X131461203Y-99599400D02*
X131604060Y-99670828D01*
X131604060Y-99670828D02*
X131889775Y-99670828D01*
X131889775Y-99670828D02*
X132032632Y-99599400D01*
X130818346Y-98670828D02*
X130461203Y-99670828D01*
X130104060Y-98670828D02*
X130461203Y-99670828D01*
X130461203Y-99670828D02*
X130604060Y-100027971D01*
X130604060Y-100027971D02*
X130675489Y-100099400D01*
X130675489Y-100099400D02*
X130818346Y-100170828D01*
X128532632Y-98170828D02*
X127532632Y-98170828D01*
X127532632Y-98170828D02*
X128532632Y-99670828D01*
X128532632Y-99670828D02*
X127532632Y-99670828D01*
X127104061Y-98170828D02*
X126104061Y-99670828D01*
X126104061Y-98170828D02*
X127104061Y-99670828D01*
X125532633Y-99670828D02*
X125532633Y-98170828D01*
X124818347Y-99670828D02*
X124818347Y-98170828D01*
X124818347Y-98170828D02*
X123961204Y-99670828D01*
X123961204Y-99670828D02*
X123961204Y-98170828D01*
X122746918Y-98885114D02*
X123246918Y-98885114D01*
X123246918Y-99670828D02*
X123246918Y-98170828D01*
X123246918Y-98170828D02*
X122532632Y-98170828D01*
X121675489Y-98170828D02*
X121389775Y-98170828D01*
X121389775Y-98170828D02*
X121246918Y-98242257D01*
X121246918Y-98242257D02*
X121104061Y-98385114D01*
X121104061Y-98385114D02*
X121032632Y-98670828D01*
X121032632Y-98670828D02*
X121032632Y-99170828D01*
X121032632Y-99170828D02*
X121104061Y-99456542D01*
X121104061Y-99456542D02*
X121246918Y-99599400D01*
X121246918Y-99599400D02*
X121389775Y-99670828D01*
X121389775Y-99670828D02*
X121675489Y-99670828D01*
X121675489Y-99670828D02*
X121818347Y-99599400D01*
X121818347Y-99599400D02*
X121961204Y-99456542D01*
X121961204Y-99456542D02*
X122032632Y-99170828D01*
X122032632Y-99170828D02*
X122032632Y-98670828D01*
X122032632Y-98670828D02*
X121961204Y-98385114D01*
X121961204Y-98385114D02*
X121818347Y-98242257D01*
X121818347Y-98242257D02*
X121675489Y-98170828D01*
D11*
X142334223Y-117803734D02*
X142334223Y-117327544D01*
X142048508Y-117898972D02*
X143048508Y-117565639D01*
X143048508Y-117565639D02*
X142048508Y-117232306D01*
X142048508Y-116851353D02*
X142048508Y-116660877D01*
X142048508Y-116660877D02*
X142096128Y-116565639D01*
X142096128Y-116565639D02*
X142143747Y-116518020D01*
X142143747Y-116518020D02*
X142286604Y-116422782D01*
X142286604Y-116422782D02*
X142477080Y-116375163D01*
X142477080Y-116375163D02*
X142858032Y-116375163D01*
X142858032Y-116375163D02*
X142953270Y-116422782D01*
X142953270Y-116422782D02*
X143000889Y-116470401D01*
X143000889Y-116470401D02*
X143048508Y-116565639D01*
X143048508Y-116565639D02*
X143048508Y-116756115D01*
X143048508Y-116756115D02*
X143000889Y-116851353D01*
X143000889Y-116851353D02*
X142953270Y-116898972D01*
X142953270Y-116898972D02*
X142858032Y-116946591D01*
X142858032Y-116946591D02*
X142619937Y-116946591D01*
X142619937Y-116946591D02*
X142524699Y-116898972D01*
X142524699Y-116898972D02*
X142477080Y-116851353D01*
X142477080Y-116851353D02*
X142429461Y-116756115D01*
X142429461Y-116756115D02*
X142429461Y-116565639D01*
X142429461Y-116565639D02*
X142477080Y-116470401D01*
X142477080Y-116470401D02*
X142524699Y-116422782D01*
X142524699Y-116422782D02*
X142619937Y-116375163D01*
X144896588Y-117803734D02*
X144896588Y-117327544D01*
X144610873Y-117898972D02*
X145610873Y-117565639D01*
X145610873Y-117565639D02*
X144610873Y-117232306D01*
X145182302Y-116756115D02*
X145229921Y-116851353D01*
X145229921Y-116851353D02*
X145277540Y-116898972D01*
X145277540Y-116898972D02*
X145372778Y-116946591D01*
X145372778Y-116946591D02*
X145420397Y-116946591D01*
X145420397Y-116946591D02*
X145515635Y-116898972D01*
X145515635Y-116898972D02*
X145563254Y-116851353D01*
X145563254Y-116851353D02*
X145610873Y-116756115D01*
X145610873Y-116756115D02*
X145610873Y-116565639D01*
X145610873Y-116565639D02*
X145563254Y-116470401D01*
X145563254Y-116470401D02*
X145515635Y-116422782D01*
X145515635Y-116422782D02*
X145420397Y-116375163D01*
X145420397Y-116375163D02*
X145372778Y-116375163D01*
X145372778Y-116375163D02*
X145277540Y-116422782D01*
X145277540Y-116422782D02*
X145229921Y-116470401D01*
X145229921Y-116470401D02*
X145182302Y-116565639D01*
X145182302Y-116565639D02*
X145182302Y-116756115D01*
X145182302Y-116756115D02*
X145134683Y-116851353D01*
X145134683Y-116851353D02*
X145087064Y-116898972D01*
X145087064Y-116898972D02*
X144991826Y-116946591D01*
X144991826Y-116946591D02*
X144801350Y-116946591D01*
X144801350Y-116946591D02*
X144706112Y-116898972D01*
X144706112Y-116898972D02*
X144658493Y-116851353D01*
X144658493Y-116851353D02*
X144610873Y-116756115D01*
X144610873Y-116756115D02*
X144610873Y-116565639D01*
X144610873Y-116565639D02*
X144658493Y-116470401D01*
X144658493Y-116470401D02*
X144706112Y-116422782D01*
X144706112Y-116422782D02*
X144801350Y-116375163D01*
X144801350Y-116375163D02*
X144991826Y-116375163D01*
X144991826Y-116375163D02*
X145087064Y-116422782D01*
X145087064Y-116422782D02*
X145134683Y-116470401D01*
X145134683Y-116470401D02*
X145182302Y-116565639D01*
X139884223Y-117803734D02*
X139884223Y-117327544D01*
X139598508Y-117898972D02*
X140598508Y-117565639D01*
X140598508Y-117565639D02*
X139598508Y-117232306D01*
X139598508Y-116375163D02*
X139598508Y-116946591D01*
X139598508Y-116660877D02*
X140598508Y-116660877D01*
X140598508Y-116660877D02*
X140455651Y-116756115D01*
X140455651Y-116756115D02*
X140360413Y-116851353D01*
X140360413Y-116851353D02*
X140312794Y-116946591D01*
X140598508Y-115756115D02*
X140598508Y-115660877D01*
X140598508Y-115660877D02*
X140550889Y-115565639D01*
X140550889Y-115565639D02*
X140503270Y-115518020D01*
X140503270Y-115518020D02*
X140408032Y-115470401D01*
X140408032Y-115470401D02*
X140217556Y-115422782D01*
X140217556Y-115422782D02*
X139979461Y-115422782D01*
X139979461Y-115422782D02*
X139788985Y-115470401D01*
X139788985Y-115470401D02*
X139693747Y-115518020D01*
X139693747Y-115518020D02*
X139646128Y-115565639D01*
X139646128Y-115565639D02*
X139598508Y-115660877D01*
X139598508Y-115660877D02*
X139598508Y-115756115D01*
X139598508Y-115756115D02*
X139646128Y-115851353D01*
X139646128Y-115851353D02*
X139693747Y-115898972D01*
X139693747Y-115898972D02*
X139788985Y-115946591D01*
X139788985Y-115946591D02*
X139979461Y-115994210D01*
X139979461Y-115994210D02*
X140217556Y-115994210D01*
X140217556Y-115994210D02*
X140408032Y-115946591D01*
X140408032Y-115946591D02*
X140503270Y-115898972D01*
X140503270Y-115898972D02*
X140550889Y-115851353D01*
X140550889Y-115851353D02*
X140598508Y-115756115D01*
X149875581Y-117803734D02*
X149875581Y-117327544D01*
X149589866Y-117898972D02*
X150589866Y-117565639D01*
X150589866Y-117565639D02*
X149589866Y-117232306D01*
X150589866Y-116470401D02*
X150589866Y-116660877D01*
X150589866Y-116660877D02*
X150542247Y-116756115D01*
X150542247Y-116756115D02*
X150494628Y-116803734D01*
X150494628Y-116803734D02*
X150351771Y-116898972D01*
X150351771Y-116898972D02*
X150161295Y-116946591D01*
X150161295Y-116946591D02*
X149780343Y-116946591D01*
X149780343Y-116946591D02*
X149685105Y-116898972D01*
X149685105Y-116898972D02*
X149637486Y-116851353D01*
X149637486Y-116851353D02*
X149589866Y-116756115D01*
X149589866Y-116756115D02*
X149589866Y-116565639D01*
X149589866Y-116565639D02*
X149637486Y-116470401D01*
X149637486Y-116470401D02*
X149685105Y-116422782D01*
X149685105Y-116422782D02*
X149780343Y-116375163D01*
X149780343Y-116375163D02*
X150018438Y-116375163D01*
X150018438Y-116375163D02*
X150113676Y-116422782D01*
X150113676Y-116422782D02*
X150161295Y-116470401D01*
X150161295Y-116470401D02*
X150208914Y-116565639D01*
X150208914Y-116565639D02*
X150208914Y-116756115D01*
X150208914Y-116756115D02*
X150161295Y-116851353D01*
X150161295Y-116851353D02*
X150113676Y-116898972D01*
X150113676Y-116898972D02*
X150018438Y-116946591D01*
X154862001Y-117803734D02*
X154862001Y-117327544D01*
X154576286Y-117898972D02*
X155576286Y-117565639D01*
X155576286Y-117565639D02*
X154576286Y-117232306D01*
X155242953Y-116470401D02*
X154576286Y-116470401D01*
X155623906Y-116708496D02*
X154909620Y-116946591D01*
X154909620Y-116946591D02*
X154909620Y-116327544D01*
X129746569Y-117803734D02*
X129746569Y-117327544D01*
X129460854Y-117898972D02*
X130460854Y-117565639D01*
X130460854Y-117565639D02*
X129460854Y-117232306D01*
X129460854Y-116375163D02*
X129460854Y-116946591D01*
X129460854Y-116660877D02*
X130460854Y-116660877D01*
X130460854Y-116660877D02*
X130317997Y-116756115D01*
X130317997Y-116756115D02*
X130222759Y-116851353D01*
X130222759Y-116851353D02*
X130175140Y-116946591D01*
X130127521Y-115518020D02*
X129460854Y-115518020D01*
X130508474Y-115756115D02*
X129794188Y-115994210D01*
X129794188Y-115994210D02*
X129794188Y-115375163D01*
X101691807Y-117756115D02*
X101691807Y-116994211D01*
X101310854Y-117375163D02*
X102072759Y-117375163D01*
X102310854Y-116041830D02*
X102310854Y-116518020D01*
X102310854Y-116518020D02*
X101834664Y-116565639D01*
X101834664Y-116565639D02*
X101882283Y-116518020D01*
X101882283Y-116518020D02*
X101929902Y-116422782D01*
X101929902Y-116422782D02*
X101929902Y-116184687D01*
X101929902Y-116184687D02*
X101882283Y-116089449D01*
X101882283Y-116089449D02*
X101834664Y-116041830D01*
X101834664Y-116041830D02*
X101739426Y-115994211D01*
X101739426Y-115994211D02*
X101501331Y-115994211D01*
X101501331Y-115994211D02*
X101406093Y-116041830D01*
X101406093Y-116041830D02*
X101358474Y-116089449D01*
X101358474Y-116089449D02*
X101310854Y-116184687D01*
X101310854Y-116184687D02*
X101310854Y-116422782D01*
X101310854Y-116422782D02*
X101358474Y-116518020D01*
X101358474Y-116518020D02*
X101406093Y-116565639D01*
X102310854Y-115708496D02*
X101310854Y-115375163D01*
X101310854Y-115375163D02*
X102310854Y-115041830D01*
X121996569Y-117803734D02*
X121996569Y-117327544D01*
X121710854Y-117898972D02*
X122710854Y-117565639D01*
X122710854Y-117565639D02*
X121710854Y-117232306D01*
X122615616Y-116946591D02*
X122663235Y-116898972D01*
X122663235Y-116898972D02*
X122710854Y-116803734D01*
X122710854Y-116803734D02*
X122710854Y-116565639D01*
X122710854Y-116565639D02*
X122663235Y-116470401D01*
X122663235Y-116470401D02*
X122615616Y-116422782D01*
X122615616Y-116422782D02*
X122520378Y-116375163D01*
X122520378Y-116375163D02*
X122425140Y-116375163D01*
X122425140Y-116375163D02*
X122282283Y-116422782D01*
X122282283Y-116422782D02*
X121710854Y-116994210D01*
X121710854Y-116994210D02*
X121710854Y-116375163D01*
X116946569Y-117803734D02*
X116946569Y-117327544D01*
X116660854Y-117898972D02*
X117660854Y-117565639D01*
X117660854Y-117565639D02*
X116660854Y-117232306D01*
X117660854Y-116708496D02*
X117660854Y-116613258D01*
X117660854Y-116613258D02*
X117613235Y-116518020D01*
X117613235Y-116518020D02*
X117565616Y-116470401D01*
X117565616Y-116470401D02*
X117470378Y-116422782D01*
X117470378Y-116422782D02*
X117279902Y-116375163D01*
X117279902Y-116375163D02*
X117041807Y-116375163D01*
X117041807Y-116375163D02*
X116851331Y-116422782D01*
X116851331Y-116422782D02*
X116756093Y-116470401D01*
X116756093Y-116470401D02*
X116708474Y-116518020D01*
X116708474Y-116518020D02*
X116660854Y-116613258D01*
X116660854Y-116613258D02*
X116660854Y-116708496D01*
X116660854Y-116708496D02*
X116708474Y-116803734D01*
X116708474Y-116803734D02*
X116756093Y-116851353D01*
X116756093Y-116851353D02*
X116851331Y-116898972D01*
X116851331Y-116898972D02*
X117041807Y-116946591D01*
X117041807Y-116946591D02*
X117279902Y-116946591D01*
X117279902Y-116946591D02*
X117470378Y-116898972D01*
X117470378Y-116898972D02*
X117565616Y-116851353D01*
X117565616Y-116851353D02*
X117613235Y-116803734D01*
X117613235Y-116803734D02*
X117660854Y-116708496D01*
X137096588Y-117803734D02*
X137096588Y-117327544D01*
X136810873Y-117898972D02*
X137810873Y-117565639D01*
X137810873Y-117565639D02*
X136810873Y-117232306D01*
X136810873Y-116375163D02*
X136810873Y-116946591D01*
X136810873Y-116660877D02*
X137810873Y-116660877D01*
X137810873Y-116660877D02*
X137668016Y-116756115D01*
X137668016Y-116756115D02*
X137572778Y-116851353D01*
X137572778Y-116851353D02*
X137525159Y-116946591D01*
X136810873Y-115422782D02*
X136810873Y-115994210D01*
X136810873Y-115708496D02*
X137810873Y-115708496D01*
X137810873Y-115708496D02*
X137668016Y-115803734D01*
X137668016Y-115803734D02*
X137572778Y-115898972D01*
X137572778Y-115898972D02*
X137525159Y-115994210D01*
X112563235Y-117232306D02*
X112610854Y-117327544D01*
X112610854Y-117327544D02*
X112610854Y-117470401D01*
X112610854Y-117470401D02*
X112563235Y-117613258D01*
X112563235Y-117613258D02*
X112467997Y-117708496D01*
X112467997Y-117708496D02*
X112372759Y-117756115D01*
X112372759Y-117756115D02*
X112182283Y-117803734D01*
X112182283Y-117803734D02*
X112039426Y-117803734D01*
X112039426Y-117803734D02*
X111848950Y-117756115D01*
X111848950Y-117756115D02*
X111753712Y-117708496D01*
X111753712Y-117708496D02*
X111658474Y-117613258D01*
X111658474Y-117613258D02*
X111610854Y-117470401D01*
X111610854Y-117470401D02*
X111610854Y-117375163D01*
X111610854Y-117375163D02*
X111658474Y-117232306D01*
X111658474Y-117232306D02*
X111706093Y-117184687D01*
X111706093Y-117184687D02*
X112039426Y-117184687D01*
X112039426Y-117184687D02*
X112039426Y-117375163D01*
X111610854Y-116756115D02*
X112610854Y-116756115D01*
X112610854Y-116756115D02*
X111610854Y-116184687D01*
X111610854Y-116184687D02*
X112610854Y-116184687D01*
X111610854Y-115708496D02*
X112610854Y-115708496D01*
X112610854Y-115708496D02*
X112610854Y-115470401D01*
X112610854Y-115470401D02*
X112563235Y-115327544D01*
X112563235Y-115327544D02*
X112467997Y-115232306D01*
X112467997Y-115232306D02*
X112372759Y-115184687D01*
X112372759Y-115184687D02*
X112182283Y-115137068D01*
X112182283Y-115137068D02*
X112039426Y-115137068D01*
X112039426Y-115137068D02*
X111848950Y-115184687D01*
X111848950Y-115184687D02*
X111753712Y-115232306D01*
X111753712Y-115232306D02*
X111658474Y-115327544D01*
X111658474Y-115327544D02*
X111610854Y-115470401D01*
X111610854Y-115470401D02*
X111610854Y-115708496D01*
X114256093Y-117184687D02*
X114208474Y-117232306D01*
X114208474Y-117232306D02*
X114160854Y-117375163D01*
X114160854Y-117375163D02*
X114160854Y-117470401D01*
X114160854Y-117470401D02*
X114208474Y-117613258D01*
X114208474Y-117613258D02*
X114303712Y-117708496D01*
X114303712Y-117708496D02*
X114398950Y-117756115D01*
X114398950Y-117756115D02*
X114589426Y-117803734D01*
X114589426Y-117803734D02*
X114732283Y-117803734D01*
X114732283Y-117803734D02*
X114922759Y-117756115D01*
X114922759Y-117756115D02*
X115017997Y-117708496D01*
X115017997Y-117708496D02*
X115113235Y-117613258D01*
X115113235Y-117613258D02*
X115160854Y-117470401D01*
X115160854Y-117470401D02*
X115160854Y-117375163D01*
X115160854Y-117375163D02*
X115113235Y-117232306D01*
X115113235Y-117232306D02*
X115065616Y-117184687D01*
X114160854Y-116279925D02*
X114160854Y-116756115D01*
X114160854Y-116756115D02*
X115160854Y-116756115D01*
X114160854Y-115946591D02*
X115160854Y-115946591D01*
X114160854Y-115375163D02*
X114732283Y-115803734D01*
X115160854Y-115375163D02*
X114589426Y-115946591D01*
X134646588Y-117803734D02*
X134646588Y-117327544D01*
X134360873Y-117898972D02*
X135360873Y-117565639D01*
X135360873Y-117565639D02*
X134360873Y-117232306D01*
X134360873Y-116375163D02*
X134360873Y-116946591D01*
X134360873Y-116660877D02*
X135360873Y-116660877D01*
X135360873Y-116660877D02*
X135218016Y-116756115D01*
X135218016Y-116756115D02*
X135122778Y-116851353D01*
X135122778Y-116851353D02*
X135075159Y-116946591D01*
X135265635Y-115994210D02*
X135313254Y-115946591D01*
X135313254Y-115946591D02*
X135360873Y-115851353D01*
X135360873Y-115851353D02*
X135360873Y-115613258D01*
X135360873Y-115613258D02*
X135313254Y-115518020D01*
X135313254Y-115518020D02*
X135265635Y-115470401D01*
X135265635Y-115470401D02*
X135170397Y-115422782D01*
X135170397Y-115422782D02*
X135075159Y-115422782D01*
X135075159Y-115422782D02*
X134932302Y-115470401D01*
X134932302Y-115470401D02*
X134360873Y-116041829D01*
X134360873Y-116041829D02*
X134360873Y-115422782D01*
X109963235Y-117232306D02*
X110010854Y-117327544D01*
X110010854Y-117327544D02*
X110010854Y-117470401D01*
X110010854Y-117470401D02*
X109963235Y-117613258D01*
X109963235Y-117613258D02*
X109867997Y-117708496D01*
X109867997Y-117708496D02*
X109772759Y-117756115D01*
X109772759Y-117756115D02*
X109582283Y-117803734D01*
X109582283Y-117803734D02*
X109439426Y-117803734D01*
X109439426Y-117803734D02*
X109248950Y-117756115D01*
X109248950Y-117756115D02*
X109153712Y-117708496D01*
X109153712Y-117708496D02*
X109058474Y-117613258D01*
X109058474Y-117613258D02*
X109010854Y-117470401D01*
X109010854Y-117470401D02*
X109010854Y-117375163D01*
X109010854Y-117375163D02*
X109058474Y-117232306D01*
X109058474Y-117232306D02*
X109106093Y-117184687D01*
X109106093Y-117184687D02*
X109439426Y-117184687D01*
X109439426Y-117184687D02*
X109439426Y-117375163D01*
X109010854Y-116756115D02*
X110010854Y-116756115D01*
X110010854Y-116756115D02*
X109010854Y-116184687D01*
X109010854Y-116184687D02*
X110010854Y-116184687D01*
X109010854Y-115708496D02*
X110010854Y-115708496D01*
X110010854Y-115708496D02*
X110010854Y-115470401D01*
X110010854Y-115470401D02*
X109963235Y-115327544D01*
X109963235Y-115327544D02*
X109867997Y-115232306D01*
X109867997Y-115232306D02*
X109772759Y-115184687D01*
X109772759Y-115184687D02*
X109582283Y-115137068D01*
X109582283Y-115137068D02*
X109439426Y-115137068D01*
X109439426Y-115137068D02*
X109248950Y-115184687D01*
X109248950Y-115184687D02*
X109153712Y-115232306D01*
X109153712Y-115232306D02*
X109058474Y-115327544D01*
X109058474Y-115327544D02*
X109010854Y-115470401D01*
X109010854Y-115470401D02*
X109010854Y-115708496D01*
X119546569Y-117803734D02*
X119546569Y-117327544D01*
X119260854Y-117898972D02*
X120260854Y-117565639D01*
X120260854Y-117565639D02*
X119260854Y-117232306D01*
X119260854Y-116375163D02*
X119260854Y-116946591D01*
X119260854Y-116660877D02*
X120260854Y-116660877D01*
X120260854Y-116660877D02*
X120117997Y-116756115D01*
X120117997Y-116756115D02*
X120022759Y-116851353D01*
X120022759Y-116851353D02*
X119975140Y-116946591D01*
X152368791Y-117803734D02*
X152368791Y-117327544D01*
X152083076Y-117898972D02*
X153083076Y-117565639D01*
X153083076Y-117565639D02*
X152083076Y-117232306D01*
X153083076Y-116422782D02*
X153083076Y-116898972D01*
X153083076Y-116898972D02*
X152606886Y-116946591D01*
X152606886Y-116946591D02*
X152654505Y-116898972D01*
X152654505Y-116898972D02*
X152702124Y-116803734D01*
X152702124Y-116803734D02*
X152702124Y-116565639D01*
X152702124Y-116565639D02*
X152654505Y-116470401D01*
X152654505Y-116470401D02*
X152606886Y-116422782D01*
X152606886Y-116422782D02*
X152511648Y-116375163D01*
X152511648Y-116375163D02*
X152273553Y-116375163D01*
X152273553Y-116375163D02*
X152178315Y-116422782D01*
X152178315Y-116422782D02*
X152130696Y-116470401D01*
X152130696Y-116470401D02*
X152083076Y-116565639D01*
X152083076Y-116565639D02*
X152083076Y-116803734D01*
X152083076Y-116803734D02*
X152130696Y-116898972D01*
X152130696Y-116898972D02*
X152178315Y-116946591D01*
X147382371Y-117803734D02*
X147382371Y-117327544D01*
X147096656Y-117898972D02*
X148096656Y-117565639D01*
X148096656Y-117565639D02*
X147096656Y-117232306D01*
X148096656Y-116994210D02*
X148096656Y-116327544D01*
X148096656Y-116327544D02*
X147096656Y-116756115D01*
X124496569Y-117803734D02*
X124496569Y-117327544D01*
X124210854Y-117898972D02*
X125210854Y-117565639D01*
X125210854Y-117565639D02*
X124210854Y-117232306D01*
X125210854Y-116994210D02*
X125210854Y-116375163D01*
X125210854Y-116375163D02*
X124829902Y-116708496D01*
X124829902Y-116708496D02*
X124829902Y-116565639D01*
X124829902Y-116565639D02*
X124782283Y-116470401D01*
X124782283Y-116470401D02*
X124734664Y-116422782D01*
X124734664Y-116422782D02*
X124639426Y-116375163D01*
X124639426Y-116375163D02*
X124401331Y-116375163D01*
X124401331Y-116375163D02*
X124306093Y-116422782D01*
X124306093Y-116422782D02*
X124258474Y-116470401D01*
X124258474Y-116470401D02*
X124210854Y-116565639D01*
X124210854Y-116565639D02*
X124210854Y-116851353D01*
X124210854Y-116851353D02*
X124258474Y-116946591D01*
X124258474Y-116946591D02*
X124306093Y-116994210D01*
X157498508Y-117184687D02*
X157974699Y-117518020D01*
X157498508Y-117756115D02*
X158498508Y-117756115D01*
X158498508Y-117756115D02*
X158498508Y-117375163D01*
X158498508Y-117375163D02*
X158450889Y-117279925D01*
X158450889Y-117279925D02*
X158403270Y-117232306D01*
X158403270Y-117232306D02*
X158308032Y-117184687D01*
X158308032Y-117184687D02*
X158165175Y-117184687D01*
X158165175Y-117184687D02*
X158069937Y-117232306D01*
X158069937Y-117232306D02*
X158022318Y-117279925D01*
X158022318Y-117279925D02*
X157974699Y-117375163D01*
X157974699Y-117375163D02*
X157974699Y-117756115D01*
X158498508Y-116565639D02*
X158498508Y-116375163D01*
X158498508Y-116375163D02*
X158450889Y-116279925D01*
X158450889Y-116279925D02*
X158355651Y-116184687D01*
X158355651Y-116184687D02*
X158165175Y-116137068D01*
X158165175Y-116137068D02*
X157831842Y-116137068D01*
X157831842Y-116137068D02*
X157641366Y-116184687D01*
X157641366Y-116184687D02*
X157546128Y-116279925D01*
X157546128Y-116279925D02*
X157498508Y-116375163D01*
X157498508Y-116375163D02*
X157498508Y-116565639D01*
X157498508Y-116565639D02*
X157546128Y-116660877D01*
X157546128Y-116660877D02*
X157641366Y-116756115D01*
X157641366Y-116756115D02*
X157831842Y-116803734D01*
X157831842Y-116803734D02*
X158165175Y-116803734D01*
X158165175Y-116803734D02*
X158355651Y-116756115D01*
X158355651Y-116756115D02*
X158450889Y-116660877D01*
X158450889Y-116660877D02*
X158498508Y-116565639D01*
X157498508Y-115708496D02*
X158498508Y-115708496D01*
X158498508Y-115708496D02*
X157784223Y-115375163D01*
X157784223Y-115375163D02*
X158498508Y-115041830D01*
X158498508Y-115041830D02*
X157498508Y-115041830D01*
X157593747Y-113994211D02*
X157546128Y-114041830D01*
X157546128Y-114041830D02*
X157498508Y-114184687D01*
X157498508Y-114184687D02*
X157498508Y-114279925D01*
X157498508Y-114279925D02*
X157546128Y-114422782D01*
X157546128Y-114422782D02*
X157641366Y-114518020D01*
X157641366Y-114518020D02*
X157736604Y-114565639D01*
X157736604Y-114565639D02*
X157927080Y-114613258D01*
X157927080Y-114613258D02*
X158069937Y-114613258D01*
X158069937Y-114613258D02*
X158260413Y-114565639D01*
X158260413Y-114565639D02*
X158355651Y-114518020D01*
X158355651Y-114518020D02*
X158450889Y-114422782D01*
X158450889Y-114422782D02*
X158498508Y-114279925D01*
X158498508Y-114279925D02*
X158498508Y-114184687D01*
X158498508Y-114184687D02*
X158450889Y-114041830D01*
X158450889Y-114041830D02*
X158403270Y-113994211D01*
X157546128Y-113613258D02*
X157498508Y-113470401D01*
X157498508Y-113470401D02*
X157498508Y-113232306D01*
X157498508Y-113232306D02*
X157546128Y-113137068D01*
X157546128Y-113137068D02*
X157593747Y-113089449D01*
X157593747Y-113089449D02*
X157688985Y-113041830D01*
X157688985Y-113041830D02*
X157784223Y-113041830D01*
X157784223Y-113041830D02*
X157879461Y-113089449D01*
X157879461Y-113089449D02*
X157927080Y-113137068D01*
X157927080Y-113137068D02*
X157974699Y-113232306D01*
X157974699Y-113232306D02*
X158022318Y-113422782D01*
X158022318Y-113422782D02*
X158069937Y-113518020D01*
X158069937Y-113518020D02*
X158117556Y-113565639D01*
X158117556Y-113565639D02*
X158212794Y-113613258D01*
X158212794Y-113613258D02*
X158308032Y-113613258D01*
X158308032Y-113613258D02*
X158403270Y-113565639D01*
X158403270Y-113565639D02*
X158450889Y-113518020D01*
X158450889Y-113518020D02*
X158498508Y-113422782D01*
X158498508Y-113422782D02*
X158498508Y-113184687D01*
X158498508Y-113184687D02*
X158450889Y-113041830D01*
X158776128Y-117894211D02*
X158776128Y-112951354D01*
X104341807Y-117756115D02*
X104341807Y-116994211D01*
X103960854Y-117375163D02*
X104722759Y-117375163D01*
X103960854Y-116470401D02*
X103960854Y-116279925D01*
X103960854Y-116279925D02*
X104008474Y-116184687D01*
X104008474Y-116184687D02*
X104056093Y-116137068D01*
X104056093Y-116137068D02*
X104198950Y-116041830D01*
X104198950Y-116041830D02*
X104389426Y-115994211D01*
X104389426Y-115994211D02*
X104770378Y-115994211D01*
X104770378Y-115994211D02*
X104865616Y-116041830D01*
X104865616Y-116041830D02*
X104913235Y-116089449D01*
X104913235Y-116089449D02*
X104960854Y-116184687D01*
X104960854Y-116184687D02*
X104960854Y-116375163D01*
X104960854Y-116375163D02*
X104913235Y-116470401D01*
X104913235Y-116470401D02*
X104865616Y-116518020D01*
X104865616Y-116518020D02*
X104770378Y-116565639D01*
X104770378Y-116565639D02*
X104532283Y-116565639D01*
X104532283Y-116565639D02*
X104437045Y-116518020D01*
X104437045Y-116518020D02*
X104389426Y-116470401D01*
X104389426Y-116470401D02*
X104341807Y-116375163D01*
X104341807Y-116375163D02*
X104341807Y-116184687D01*
X104341807Y-116184687D02*
X104389426Y-116089449D01*
X104389426Y-116089449D02*
X104437045Y-116041830D01*
X104437045Y-116041830D02*
X104532283Y-115994211D01*
X104960854Y-115708496D02*
X103960854Y-115375163D01*
X103960854Y-115375163D02*
X104960854Y-115041830D01*
X127046569Y-117803734D02*
X127046569Y-117327544D01*
X126760854Y-117898972D02*
X127760854Y-117565639D01*
X127760854Y-117565639D02*
X126760854Y-117232306D01*
X126760854Y-116375163D02*
X126760854Y-116946591D01*
X126760854Y-116660877D02*
X127760854Y-116660877D01*
X127760854Y-116660877D02*
X127617997Y-116756115D01*
X127617997Y-116756115D02*
X127522759Y-116851353D01*
X127522759Y-116851353D02*
X127475140Y-116946591D01*
X127760854Y-115470401D02*
X127760854Y-115946591D01*
X127760854Y-115946591D02*
X127284664Y-115994210D01*
X127284664Y-115994210D02*
X127332283Y-115946591D01*
X127332283Y-115946591D02*
X127379902Y-115851353D01*
X127379902Y-115851353D02*
X127379902Y-115613258D01*
X127379902Y-115613258D02*
X127332283Y-115518020D01*
X127332283Y-115518020D02*
X127284664Y-115470401D01*
X127284664Y-115470401D02*
X127189426Y-115422782D01*
X127189426Y-115422782D02*
X126951331Y-115422782D01*
X126951331Y-115422782D02*
X126856093Y-115470401D01*
X126856093Y-115470401D02*
X126808474Y-115518020D01*
X126808474Y-115518020D02*
X126760854Y-115613258D01*
X126760854Y-115613258D02*
X126760854Y-115851353D01*
X126760854Y-115851353D02*
X126808474Y-115946591D01*
X126808474Y-115946591D02*
X126856093Y-115994210D01*
X131989779Y-117803734D02*
X131989779Y-117327544D01*
X131704064Y-117898972D02*
X132704064Y-117565639D01*
X132704064Y-117565639D02*
X131704064Y-117232306D01*
X131704064Y-116375163D02*
X131704064Y-116946591D01*
X131704064Y-116660877D02*
X132704064Y-116660877D01*
X132704064Y-116660877D02*
X132561207Y-116756115D01*
X132561207Y-116756115D02*
X132465969Y-116851353D01*
X132465969Y-116851353D02*
X132418350Y-116946591D01*
X132704064Y-116041829D02*
X132704064Y-115422782D01*
X132704064Y-115422782D02*
X132323112Y-115756115D01*
X132323112Y-115756115D02*
X132323112Y-115613258D01*
X132323112Y-115613258D02*
X132275493Y-115518020D01*
X132275493Y-115518020D02*
X132227874Y-115470401D01*
X132227874Y-115470401D02*
X132132636Y-115422782D01*
X132132636Y-115422782D02*
X131894541Y-115422782D01*
X131894541Y-115422782D02*
X131799303Y-115470401D01*
X131799303Y-115470401D02*
X131751684Y-115518020D01*
X131751684Y-115518020D02*
X131704064Y-115613258D01*
X131704064Y-115613258D02*
X131704064Y-115898972D01*
X131704064Y-115898972D02*
X131751684Y-115994210D01*
X131751684Y-115994210D02*
X131799303Y-116041829D01*
M02*
