%TF.GenerationSoftware,KiCad,Pcbnew,8.0.2-1*%
%TF.CreationDate,2024-06-12T00:12:27+02:00*%
%TF.ProjectId,zx81-external-16k,7a783831-2d65-4787-9465-726e616c2d31,rev?*%
%TF.SameCoordinates,Original*%
%TF.FileFunction,Soldermask,Bot*%
%TF.FilePolarity,Negative*%
%FSLAX46Y46*%
G04 Gerber Fmt 4.6, Leading zero omitted, Abs format (unit mm)*
G04 Created by KiCad (PCBNEW 8.0.2-1) date 2024-06-12 00:12:27*
%MOMM*%
%LPD*%
G01*
G04 APERTURE LIST*
%ADD10R,1.600000X1.600000*%
%ADD11O,1.600000X1.600000*%
%ADD12C,1.600000*%
%ADD13R,1.778000X9.620000*%
%ADD14R,1.800000X1.800000*%
%ADD15C,1.800000*%
G04 APERTURE END LIST*
D10*
%TO.C,D2*%
X120250000Y-112160000D03*
D11*
X127870000Y-112160000D03*
%TD*%
D10*
%TO.C,D3*%
X108300000Y-112200000D03*
D11*
X115920000Y-112200000D03*
%TD*%
D10*
%TO.C,U3*%
X150300000Y-93670000D03*
D11*
X150300000Y-96210000D03*
X150300000Y-98750000D03*
X150300000Y-101290000D03*
X150300000Y-103830000D03*
X150300000Y-106370000D03*
X150300000Y-108910000D03*
X157920000Y-108910000D03*
X157920000Y-106370000D03*
X157920000Y-103830000D03*
X157920000Y-101290000D03*
X157920000Y-98750000D03*
X157920000Y-96210000D03*
X157920000Y-93670000D03*
%TD*%
D12*
%TO.C,R3*%
X132400000Y-88030000D03*
D11*
X122240000Y-88030000D03*
%TD*%
D12*
%TO.C,R2*%
X136250000Y-88000000D03*
D11*
X146410000Y-88000000D03*
%TD*%
D12*
%TO.C,R1*%
X118260000Y-88000000D03*
D11*
X108100000Y-88000000D03*
%TD*%
D10*
%TO.C,U2*%
X139840000Y-93670000D03*
D11*
X139840000Y-96210000D03*
X139840000Y-98750000D03*
X139840000Y-101290000D03*
X139840000Y-103830000D03*
X139840000Y-106370000D03*
X139840000Y-108910000D03*
X147460000Y-108910000D03*
X147460000Y-106370000D03*
X147460000Y-103830000D03*
X147460000Y-101290000D03*
X147460000Y-98750000D03*
X147460000Y-96210000D03*
X147460000Y-93670000D03*
%TD*%
D10*
%TO.C,U1*%
X102940000Y-108705000D03*
D11*
X105480000Y-108705000D03*
X108020000Y-108705000D03*
X110560000Y-108705000D03*
X113100000Y-108705000D03*
X115640000Y-108705000D03*
X118180000Y-108705000D03*
X120720000Y-108705000D03*
X123260000Y-108705000D03*
X125800000Y-108705000D03*
X128340000Y-108705000D03*
X130880000Y-108705000D03*
X133420000Y-108705000D03*
X135960000Y-108705000D03*
X135960000Y-93465000D03*
X133420000Y-93465000D03*
X130880000Y-93465000D03*
X128340000Y-93465000D03*
X125800000Y-93465000D03*
X123260000Y-93465000D03*
X120720000Y-93465000D03*
X118180000Y-93465000D03*
X115640000Y-93465000D03*
X113100000Y-93465000D03*
X110560000Y-93465000D03*
X108020000Y-93465000D03*
X105480000Y-93465000D03*
X102940000Y-93465000D03*
%TD*%
D13*
%TO.C,J1*%
X101980000Y-123400000D03*
X104520000Y-123400000D03*
X109600000Y-123400000D03*
X112140000Y-123400000D03*
X114680000Y-123400000D03*
X117220000Y-123400000D03*
X119760000Y-123400000D03*
X122300000Y-123400000D03*
X124840000Y-123400000D03*
X127380000Y-123400000D03*
X129920000Y-123400000D03*
X132460000Y-123400000D03*
X135000000Y-123400000D03*
X137540000Y-123400000D03*
X140080000Y-123400000D03*
X142620000Y-123400000D03*
X145160000Y-123400000D03*
X147700000Y-123400000D03*
X150240000Y-123400000D03*
X152780000Y-123400000D03*
X155320000Y-123400000D03*
X157860000Y-123400000D03*
%TD*%
D14*
%TO.C,D1*%
X102615000Y-88750000D03*
D15*
X105155000Y-88750000D03*
%TD*%
D12*
%TO.C,C4*%
X117850000Y-90980000D03*
X120350000Y-90980000D03*
%TD*%
%TO.C,C3*%
X156260000Y-90100000D03*
X156260000Y-87600000D03*
%TD*%
%TO.C,C2*%
X149370000Y-90070000D03*
X149370000Y-87570000D03*
%TD*%
%TO.C,C1*%
X108100000Y-90960000D03*
X110600000Y-90960000D03*
%TD*%
M02*
